<svg id="Layer_3" data-name="Layer 3" xmlns="http://www.w3.org/2000/svg" viewBox="0 0 567.36 78"><defs><style>.cls-1{fill:#98d2d4;}.cls-2{fill:#579e9e;}.cls-3{fill:#29909b;}.cls-4{fill:#fff;}</style></defs><title>backgroundheader</title><rect class="cls-1" width="567.36" height="78"/><rect class="cls-1" width="566.41" height="76.03"/><path class="cls-2" d="M567.36,74.1c-51.41,0-93.09-4.3-93.09-9.6s41.69-9.6,93.09-9.6"/><ellipse class="cls-2" cx="484.47" cy="68.4" rx="66.56" ry="9.6"/><path class="cls-2" d="M567.36,77.54c-47.38,0-85.79-4.3-85.79-9.6s38.41-9.6,85.79-9.6"/><path class="cls-3" d="M0,58.22c70.66,0,128,2.78,128,6.21S70.67,70.64,0,70.64"/><ellipse class="cls-3" cx="99.95" cy="69.48" rx="91.49" ry="6.21"/><path class="cls-3" d="M0,65.58c65.13,0,117.92,2.78,117.92,6.21S65.12,78,0,78"/><circle class="cls-4" cx="8.46" cy="51.28" r="4.75"/><circle class="cls-4" cx="66.54" cy="28.25" r="4.75"/><circle class="cls-4" cx="73.5" cy="13.99" r="2.11"/><circle class="cls-4" cx="66.54" cy="47.06" r="2.11"/><circle class="cls-4" cx="93.91" cy="22.08" r="2.11"/><circle class="cls-4" cx="87.58" cy="11.88" r="2.11"/><circle class="cls-4" cx="520.81" cy="21.42" r="3.56"/><circle class="cls-4" cx="561.32" cy="13.2" r="2.11"/><circle class="cls-4" cx="525" cy="11.09" r="2.11"/><circle class="cls-4" cx="508.31" cy="4.95" r="1.48"/><ellipse class="cls-2" cx="450.97" cy="71.02" rx="115.44" ry="6.52"/><circle class="cls-4" cx="61.79" cy="65.58" r="4.75"/><circle class="cls-4" cx="43.47" cy="51.49" r="4.75"/><circle class="cls-4" cx="89.69" cy="55.34" r="2.11"/><circle class="cls-4" cx="19.67" cy="42.31" r="2.11"/><circle class="cls-4" cx="506.2" cy="35.9" r="2.11"/><circle class="cls-4" cx="45.58" cy="15.31" r="2.11"/><circle class="cls-4" cx="548.64" cy="47.06" r="4.75"/><circle class="cls-4" cx="546.28" cy="64.43" r="4.75"/><circle class="cls-4" cx="19.67" cy="19.35" r="2.11"/><circle class="cls-4" cx="491.35" cy="71.02" r="2.11"/><circle class="cls-4" cx="496.72" cy="30.34" r="2.11"/><circle class="cls-4" cx="93.05" cy="65.58" r="2.11"/><circle class="cls-4" cx="546.28" cy="27.9" r="4.75"/><circle class="cls-4" cx="541.53" cy="11.09" r="4.75"/><circle class="cls-4" cx="486.58" cy="51.81" r="2.11"/><circle class="cls-4" cx="496.72" cy="47.06" r="2.11"/><circle class="cls-4" cx="525" cy="30.34" r="2.11"/><circle class="cls-4" cx="559.21" cy="39" r="2.11"/><circle class="cls-4" cx="528.47" cy="40.04" r="4.75"/><circle class="cls-4" cx="514.51" cy="49.7" r="3.56"/><circle class="cls-4" cx="55.36" cy="7.13" r="4.75"/><circle class="cls-4" cx="12.02" cy="7.07" r="3.56"/><circle class="cls-4" cx="27.88" cy="70.33" r="4.75"/><circle class="cls-4" cx="37.38" cy="28.25" r="4.75" transform="translate(-3.06 4.59) rotate(-6.75)"/><circle class="cls-4" cx="506.2" cy="63.55" r="4.75"/><circle class="cls-4" cx="504.09" cy="15.84" r="4.75"/><circle class="cls-4" cx="523.72" cy="67.94" r="2.11"/><circle class="cls-4" cx="81.38" cy="41.11" r="2.11"/></svg>