<svg id="Layer_2" data-name="Layer 2" xmlns="http://www.w3.org/2000/svg" viewBox="0 0 570 79.81"><defs><style>.cls-1{fill:#d79706;}.cls-2{fill:#e5c984;}.cls-3{fill:#fff;}.cls-4{fill:#f8f7f7;opacity:0.24;isolation:isolate;}.cls-5{fill:#d5741d;}.cls-6,.cls-7,.cls-8{fill:none;stroke-miterlimit:10;}.cls-6,.cls-8{stroke:#b54f17;}.cls-7{stroke:#ed7013;}.cls-8{stroke-width:0.25px;}.cls-9{opacity:0.7;}</style></defs><title>framtidheader2</title><rect class="cls-1" width="570" height="79.81"/><rect class="cls-2" x="2.5" width="566.41" height="76.03"/><path class="cls-1" d="M566.47,75.2c-51.41,0-93.09-4.3-93.09-9.6S515.06,56,566.47,56" transform="translate(1.53)"/><ellipse class="cls-1" cx="461.44" cy="57.77" rx="66.56" ry="9.6"/><path class="cls-1" d="M566.47,63.82c-47.38,0-85.79-4.3-85.79-9.6s38.41-9.6,85.79-9.6" transform="translate(1.53)"/><circle class="cls-3" cx="547.39" cy="25.36" r="4.75"/><circle class="cls-3" cx="504.05" cy="25.3" r="3.56"/><circle class="cls-3" cx="523.44" cy="20.64" r="2.11"/><circle class="cls-3" cx="530.92" cy="28.9" r="2.11"/><circle class="cls-3" cx="559.2" cy="18.53" r="2.11"/><circle class="cls-3" cx="495.18" cy="15.35" r="1.48"/><ellipse class="cls-1" cx="429.39" cy="64.49" rx="115.44" ry="6.52"/><path class="cls-3" d="M223.88,27.27h14.35A17.35,17.35,0,0,0,237,29a18.34,18.34,0,0,0-.93,2.09l-0.11.28a5.84,5.84,0,0,0-1.8-2.43,6,6,0,0,0-3-.55h-2.64v6.47h0.84V29.2h2.23q2.82,0,3.53,1.47a3.53,3.53,0,0,0-1.47-.88,9.69,9.69,0,0,0-2.45-.23q-0.59,0-1.48.07V35h2.09L234,32.63v5.7L231.71,36h-3.17v7l1.77,1.8h-6.79l2.25-1.8v-6a2.56,2.56,0,0,0-1.87.8l-0.26-.29a2.74,2.74,0,0,1,2.13-.89V36.06h-0.41a2.89,2.89,0,0,0-2.23,1l-0.1-.22a2.86,2.86,0,0,1,2.74-2V29.06Zm8.66,9.94h-2.83v5.92l2.43,3h-8l-0.35-.37h7.58l-2-2.47V36.83h2.78ZM235,33v6l-0.36-.21v-6Zm4.27-4.92a11.3,11.3,0,0,0-2.49,4.23l-0.29-.19A9.54,9.54,0,0,1,239,27.88Z" transform="translate(1.53)"/><path class="cls-3" d="M241.28,28.93a13.86,13.86,0,0,1,7-1.9,8.52,8.52,0,0,1,4.83,1.27,3.78,3.78,0,0,1,1.9,3.24,3.9,3.9,0,0,1-1.24,2.84,7.27,7.27,0,0,1-3.4,1.79A24.55,24.55,0,0,0,253,41.33a16.6,16.6,0,0,0,3.28,3.82l-0.21.07a18.21,18.21,0,0,0-4,2l-0.21.14-0.07-.44a39.76,39.76,0,0,0-2.48-9.07l-0.06-.14a10.09,10.09,0,0,1-2.56.71h-0.11v5.17l2.43,2.6h-7.15l-0.22-.37h6.58l-2-2.13V38.12h0.29a9.24,9.24,0,0,0,2.64-.62l-0.1-.21-0.14-.4-0.07-.17a24.51,24.51,0,0,1-3.24.54h-0.15v6.07L247,45H240.9l1.8-1.65V38.68h-0.12a14.17,14.17,0,0,0-1.45.4H241l-0.12-.28a8.05,8.05,0,0,1,1-.32l0.73-.18h0.11V37.58a7.43,7.43,0,0,0-2,.36l-0.15,0a6.61,6.61,0,0,1,.28-0.9s0.08-.24.19-0.62V36.35h1a5.41,5.41,0,0,0,.69,0v-6.8a8.27,8.27,0,0,0-1.31-.65Zm4.18-.36V36a4,4,0,0,0,.76-0.07v-6.8a7,7,0,0,1,1.83-.21q2.7,0,3.66,1.77a7.4,7.4,0,0,0-1.8-1.14,5,5,0,0,0-1.85-.31,5.9,5.9,0,0,0-1.48.17V36h0.15a9,9,0,0,0,4-1.57A3.42,3.42,0,0,0,252,31.6a3.18,3.18,0,0,0-1.19-2.54,4.49,4.49,0,0,0-3-1,5.08,5.08,0,0,0-2.43.51h0Zm6.68,8.3a16.56,16.56,0,0,0,3.08,5.57,14.6,14.6,0,0,0,3.5,3.06,21.85,21.85,0,0,0-6,2.57l-0.12.08-0.28-.22A19.7,19.7,0,0,1,258,45.39q-4-2.66-6.26-8.49l-0.08-.24q4.23-1.6,4.23-4.9a5.37,5.37,0,0,0-1.09-3A4.18,4.18,0,0,1,256.2,32q0,3.22-4.1,4.86h0Z" transform="translate(1.53)"/><path class="cls-3" d="M272.81,27.27l-1.44,1.63,2.27,6,0.55-.3-2-5.45,1.47-1.69L274,27.61l-1.4,1.62,1.94,5.16,0.19-.15,0.46-.39a3.94,3.94,0,0,0,.53-0.47,9.59,9.59,0,0,0,1.11,2.82h-0.58a3.48,3.48,0,0,0-1.92.41l2.5,6.79,2.07,1.6h-7l1.91-1.6-1.55-4.07a15.32,15.32,0,0,0-2.34,2.92l-0.32-.08a17.61,17.61,0,0,1,2.43-3l0.11-.14-0.26-.61a12.31,12.31,0,0,0-2.72,3.18l-0.25-.4q-0.72-1.15-1.84-2.61l-0.14-.17a10,10,0,0,0-1.06,3.84,3.3,3.3,0,0,0,.3,1.47,13.58,13.58,0,0,0,1.43,2l0.3,0.39h-7.47l-0.28-.37h7l-0.24-.29a9,9,0,0,1-1.2-1.72,3.42,3.42,0,0,1-.28-1.45,12.42,12.42,0,0,1,1.15-4.2L266,37.45q-0.18.44-.46,1.3l-0.46,1.41A6.28,6.28,0,0,0,264.7,42a2.8,2.8,0,0,0,.26,1.29,6.87,6.87,0,0,0,1.11,1.4L266.32,45h-6.91a8.24,8.24,0,0,0,3.13-2.75,21.82,21.82,0,0,0,2.29-5.34l0.06-.19a3.79,3.79,0,0,0-2.12-.76,9.92,9.92,0,0,0,1.18-2.37l0.24,0.22,0.62,0.58a7,7,0,0,0,.76.62l0.25-.61-0.17-.14q-0.69-.61-1.16-1l-0.12-.1,0.22-.3A10.66,10.66,0,0,1,266,34l1.88-5.17-1.47-1.58h6.38Zm-4,2.83-2.2,5.81A19.3,19.3,0,0,1,268.42,38l0.64,0.88,0.14,0.18,0.14-.15,0.19-.23,0.15-.18a14.4,14.4,0,0,0-2.25-2.7l1.77-4.67Zm0.62,1.6-1.52,4,0.14,0.17,0.57,0.64a13.87,13.87,0,0,1,1.16,1.55l0.14,0.21a12.28,12.28,0,0,1,1.41-1.48Zm7.51,2.36a14.91,14.91,0,0,0,1.52,3.42h-0.35l-1.12-.1q-0.76-.07-1.11-0.07h-0.3l2.31,6.13L281,46.16h-8l-0.26-.37H280l-2.49-2.2-2.46-6.51a4.22,4.22,0,0,1,1.08-.12,12.38,12.38,0,0,1,1.66.13l-0.17-.3a12,12,0,0,1-1.19-3Z" transform="translate(1.53)"/><path class="cls-3" d="M301.48,27.27l-1.89,1.92v14.2l1.7,1.62h-6.36l1.92-1.62V34.08l-4.38,12.06h-1.33L291,45.77h1.25l4.62-12.86V30.79L291.76,45h-1L287,33.83v7.32a7.69,7.69,0,0,0,.19,2.07,3.61,3.61,0,0,0,.91,1.34l1.24,1.58h-7.23l-0.25-.37h6.79L288.11,45h-6.17l0.29-.15a5.07,5.07,0,0,0,2-1.71,5.76,5.76,0,0,0,.49-2.73V29l-1.83-1.71H290l-2,1.81,3.91,11.57,0.5-1.2-3.54-10.26,1.81-1.34L291,28.09l-1.73,1.24L292.57,39l3.57-9.86-1.69-1.81h7Zm-15.65,3.28v9.93a7.72,7.72,0,0,0,.44,3.14,2.7,2.7,0,0,0,1.8,1.25L288,44.66A3.09,3.09,0,0,1,286.6,42v-9.2Zm16.45-2.22-1.56,1.12V43.39l2.41,2.74h-7.34l-0.19-.37h6.68l-1.92-2.17V29.23L302,28.11Z" transform="translate(1.53)"/><path class="cls-3" d="M320.41,27.27l-0.17.32-1,1.65a12.23,12.23,0,0,0-.9,2.21v0.07l-0.14-.1V31.24a4.08,4.08,0,0,0-1.14-2.18,3.52,3.52,0,0,0-2.26-.61q-0.62,0-1.24.06h-0.22v15L315,45h-6.32l1.94-1.62V29.63h-1a2.29,2.29,0,0,0-2.74,2.53h-0.36a3.46,3.46,0,0,1,.84-2.25,3.27,3.27,0,0,1,2.26-.64h1V28.59a11.41,11.41,0,0,0-1.34-.08,3.73,3.73,0,0,0-2.57.73,3.46,3.46,0,0,0-.87,2.45h-0.17a25.7,25.7,0,0,0-1.84-4.29l-0.08-.14h16.65Zm-2.82,3a4.47,4.47,0,0,0-2.49-.69,5.45,5.45,0,0,0-.66,0l0.06,13.9,2.2,2.6h-7.07l-0.32-.37h6.62l-1.85-2.12V29.24h0.75a5.91,5.91,0,0,1,1.9.21,1.59,1.59,0,0,1,.85.88V30.27Zm3.69-2.16a15.89,15.89,0,0,0-2,4l0,0.14-0.3-.26V31.87a13.52,13.52,0,0,1,2-4l0.07-.08Z" transform="translate(1.53)"/><path class="cls-3" d="M322.79,27.27h6.55l-1.85,1.88v14.4L329.23,45h-6.44l1.92-1.59V29ZM330,28.06l-1.41,1.4V43.55l2.32,2.6h-7.19l-0.35-.37h6.72l-1.89-2.09V29.33l1.56-1.55Z" transform="translate(1.53)"/><path class="cls-3" d="M333.28,27.27h5.45q4,0,5.92,1.54,2.86,2.27,2.86,7.11,0,5-2.5,7.26a6.58,6.58,0,0,1-2.54,1.42,13.58,13.58,0,0,1-3.73.42h-5.88l1.89-1.45V28.87Zm0.44,18.88-0.21-.37h5.06a12.31,12.31,0,0,0,5.67-1q4.16-2.21,4.16-8.56,0-4.25-1.87-6.31L346,29.3l-0.17-.19q2.93,1.84,2.93,7,0,5.46-2.9,8-2.23,2-7.27,2h-4.85v0Zm3.75-17.71V44h0.76V29.33a8.77,8.77,0,0,1,1.31-.11,5.62,5.62,0,0,1,1.79.23,3.86,3.86,0,0,1,1.32.84,7.27,7.27,0,0,0-3.14-.69q-0.36,0-.94.06V43.94a8.19,8.19,0,0,0,2.35-.26,3.74,3.74,0,0,0,1.52-1q2-2,2-6.83t-2.17-6.4a6.72,6.72,0,0,0-4.16-1h-0.64Z" transform="translate(1.53)"/><circle class="cls-3" cx="108.7" cy="18.9" r="4.75"/><circle class="cls-3" cx="66.56" cy="20.04" r="4.75"/><circle class="cls-3" cx="84.74" cy="14.18" r="2.11"/><circle class="cls-3" cx="92.23" cy="22.44" r="2.11"/><circle class="cls-3" cx="120.51" cy="12.07" r="2.11"/><circle class="cls-3" cx="57.55" cy="9.97" r="2.11"/><circle class="cls-3" cx="399.47" cy="18.23" r="4.75" transform="translate(379.7 417.55) rotate(-89.56)"/><circle class="cls-3" cx="357.31" cy="19.04" r="4.75" transform="translate(337.05 376.19) rotate(-89.56)"/><circle class="cls-3" cx="375.54" cy="13.33" r="2.11" transform="translate(360.86 388.75) rotate(-89.56)"/><circle class="cls-3" cx="382.96" cy="21.64" r="2.11" transform="translate(359.91 404.43) rotate(-89.56)"/><circle class="cls-3" cx="411.32" cy="11.48" r="2.11" transform="translate(398.21 422.7) rotate(-89.56)"/><circle class="cls-3" cx="348.39" cy="8.9" r="2.11" transform="translate(338.34 357.21) rotate(-89.56)"/><circle class="cls-3" cx="20.68" cy="25.66" r="2.39" transform="translate(-4.16 5.9) rotate(-14.29)"/><circle class="cls-3" cx="41.12" cy="19.87" r="2.39" transform="translate(-2.1 10.77) rotate(-14.29)"/><circle class="cls-3" cx="32.98" cy="24.99" r="1.06" transform="translate(-3.62 8.91) rotate(-14.29)"/><circle class="cls-3" cx="28.3" cy="21.88" r="1.06" transform="translate(-2.99 7.66) rotate(-14.29)"/><circle class="cls-3" cx="15.77" cy="30.46" r="1.06" transform="translate(-5.5 4.84) rotate(-14.29)"/><circle class="cls-3" cx="46.76" cy="23.66" r="1.06" transform="translate(-2.86 12.27) rotate(-14.29)"/><circle class="cls-3" cx="415.38" cy="32.28" r="4.75" transform="matrix(1, 0, 0, 1, 1.38, 2.03)"/><circle class="cls-3" cx="457.52" cy="30.95" r="4.75" transform="matrix(1, 0, 0, 1, 1.38, 2.24)"/><circle class="cls-3" cx="439.36" cy="36.89" r="2.11" transform="translate(1.35 2.15) rotate(-0.28)"/><circle class="cls-3" cx="431.84" cy="28.66" r="2.11" transform="translate(1.39 2.11) rotate(-0.28)"/><circle class="cls-3" cx="403.61" cy="39.17" r="2.11" transform="translate(1.34 1.97) rotate(-0.28)"/><circle class="cls-3" cx="466.57" cy="40.97" r="2.11" transform="translate(1.33 2.28) rotate(-0.28)"/><path class="cls-1" d="M0,57.49c70.66,0,127.95,2.78,127.95,6.21S70.67,69.91,0,69.91" transform="translate(1.53)"/><ellipse class="cls-1" cx="147.99" cy="68.76" rx="91.49" ry="6.21"/><path class="cls-1" d="M0,64.84c65.13,0,117.92,2.78,117.92,6.21S65.12,77.26,0,77.26" transform="translate(1.53)"/><ellipse class="cls-4" cx="450.78" cy="24.45" rx="118.13" ry="6.56"/><polygon class="cls-1" points="191.4 70.86 174.27 69.92 176.96 7.51 192.11 12.35 191.4 70.86"/><polygon class="cls-5" points="192.11 12.35 189.22 14.22 180.12 12.8 176.96 7.51 182.12 4.63 194.83 8.88 192.11 12.35"/><polygon class="cls-5" points="189.22 14.22 174.27 69.92 187.41 70.64 194.83 8.88 189.22 14.22"/><line class="cls-6" x1="180.12" y1="12.8" x2="174.54" y2="63.69"/><line class="cls-6" x1="194.76" y1="10.27" x2="185.87" y2="70.56"/><line class="cls-6" x1="190.61" y1="12.84" x2="174.27" y2="69.91"/><rect class="cls-5" x="150.68" y="44.02" width="26.32" height="11.46" transform="translate(106.64 210.59) rotate(-86.83)"/><polygon class="cls-1" points="149.01 42.53 160.37 36.28 158.92 62.56 149.13 62.02 149.01 42.53"/><rect class="cls-5" x="122.65" y="39.52" width="47.57" height="11.46" transform="translate(94.69 188.96) rotate(-86.83)"/><polygon class="cls-1" points="131.9 32.96 143.56 21.18 140.94 68.68 131.15 68.14 131.9 32.96"/><rect class="cls-5" x="117.72" y="48.8" width="26.32" height="5.84" transform="translate(73.53 179.54) rotate(-86.83)"/><polygon class="cls-1" points="124.24 44.97 130.22 38.43 128.77 64.7 123.77 64.43 124.24 44.97"/><polygon class="cls-1" points="123.17 64.26 114.38 64.26 113.98 32.26 121.88 34.3 123.17 64.26"/><polygon class="cls-5" points="121.88 34.3 120.45 35.34 115.75 34.87 113.98 32.26 116.55 30.64 123.17 32.45 121.88 34.3"/><polygon class="cls-5" points="120.45 35.34 114.38 64.26 121.12 64.26 123.17 32.45 120.45 35.34"/><line class="cls-7" x1="115.75" y1="34.87" x2="114.34" y2="61.07"/><line class="cls-7" x1="123.17" y1="33.16" x2="120.33" y2="64.26"/><line class="cls-7" x1="121.12" y1="34.6" x2="114.38" y2="64.26"/><rect class="cls-5" x="106.31" y="47.45" width="5.87" height="13.49"/><polygon class="cls-1" points="100.68 50.97 106.31 47.45 106.31 60.93 101.29 60.93 100.68 50.97"/><rect class="cls-5" x="97.29" y="40.2" width="5.87" height="24.38"/><polygon class="cls-1" points="91.65 46.56 97.29 40.2 97.29 64.57 92.26 64.57 91.65 46.56"/><rect class="cls-5" x="90.95" y="49.4" width="3" height="13.49"/><polygon class="cls-1" points="88.07 52.92 90.95 49.4 90.95 62.88 88.39 62.88 88.07 52.92"/><polygon class="cls-1" points="92.74 69.52 83.95 69.52 83.55 37.51 91.44 39.56 92.74 69.52"/><polygon class="cls-5" points="91.44 39.56 90.01 40.6 85.32 40.13 83.55 37.51 86.11 35.89 92.74 37.7 91.44 39.56"/><polygon class="cls-5" points="90.01 40.6 83.95 69.52 90.69 69.52 92.74 37.7 90.01 40.6"/><line class="cls-7" x1="85.32" y1="40.13" x2="83.91" y2="66.32"/><line class="cls-7" x1="92.74" y1="38.41" x2="89.9" y2="69.51"/><line class="cls-7" x1="90.69" y1="39.85" x2="83.95" y2="69.51"/><rect class="cls-5" x="75.88" y="52.7" width="5.87" height="13.49"/><polygon class="cls-1" points="70.24 56.22 75.88 52.7 75.88 66.19 70.86 66.19 70.24 56.22"/><rect class="cls-5" x="66.85" y="45.45" width="5.87" height="24.38"/><polygon class="cls-1" points="61.22 51.81 66.86 45.45 66.86 69.83 61.83 69.83 61.22 51.81"/><rect class="cls-5" x="60.52" y="54.65" width="3" height="13.49"/><polygon class="cls-1" points="57.64 58.17 60.51 54.65 60.51 68.14 57.95 68.14 57.64 58.17"/><polygon class="cls-1" points="66.56 67.51 57.88 68.87 52.53 37.32 60.64 38.12 66.56 67.51"/><polygon class="cls-5" points="60.64 38.12 59.39 39.37 54.68 39.63 52.53 37.32 54.81 35.32 61.63 36.09 60.64 38.12"/><polygon class="cls-5" points="59.39 39.37 57.88 68.87 64.54 67.83 61.63 36.09 59.39 39.37"/><line class="cls-7" x1="54.68" y1="39.63" x2="57.35" y2="65.73"/><line class="cls-7" x1="61.74" y1="36.79" x2="63.76" y2="67.95"/><line class="cls-7" x1="59.94" y1="38.52" x2="57.88" y2="68.87"/><rect class="cls-5" x="46.79" y="52.97" width="5.87" height="13.49" transform="translate(-7.13 8.43) rotate(-8.92)"/><polygon class="cls-1" points="42.28 57.86 47.31 53.51 49.4 66.84 44.44 67.62 42.28 57.86"/><rect class="cls-5" x="37.59" y="47.15" width="5.87" height="24.38" transform="translate(-7.18 7) rotate(-8.92)"/><polygon class="cls-1" points="32.68 54.91 37.26 47.75 41.05 71.83 36.08 72.61 32.68 54.91"/><rect class="cls-5" x="31.93" y="57.51" width="3" height="13.49" transform="translate(-8.03 5.96) rotate(-8.92)"/><polygon class="cls-1" points="30.13 61.74 32.43 57.82 34.52 71.15 31.99 71.54 30.13 61.74"/><polygon class="cls-1" points="211.31 66.77 202.62 68.13 197.27 36.58 205.38 37.38 211.31 66.77"/><polygon class="cls-5" points="205.38 37.38 204.13 38.62 199.42 38.89 197.27 36.58 199.55 34.58 206.37 35.34 205.38 37.38"/><polygon class="cls-5" points="204.13 38.62 202.62 68.13 209.28 67.09 206.37 35.34 204.13 38.62"/><line class="cls-7" x1="199.42" y1="38.89" x2="202.09" y2="64.98"/><line class="cls-7" x1="206.48" y1="36.05" x2="208.5" y2="67.21"/><line class="cls-7" x1="204.68" y1="37.78" x2="202.62" y2="68.13"/><rect class="cls-5" x="191.53" y="52.23" width="5.87" height="13.49" transform="translate(-5.26 30.87) rotate(-8.92)"/><polygon class="cls-1" points="187.02 57.12 192.05 52.77 194.14 66.1 189.18 66.88 187.02 57.12"/><rect class="cls-5" x="182.34" y="46.4" width="5.87" height="24.38" transform="translate(-5.31 29.44) rotate(-8.92)"/><polygon class="cls-1" points="177.42 54.17 182 47.01 185.78 71.09 180.82 71.87 177.42 54.17"/><rect class="cls-5" x="176.68" y="56.77" width="3" height="13.49" transform="translate(-6.16 28.4) rotate(-8.92)"/><polygon class="cls-1" points="174.87 61 177.17 57.08 179.26 70.41 176.73 70.8 174.87 61"/><ellipse class="cls-4" cx="185.11" cy="51.45" rx="175.29" ry="3.28"/><rect class="cls-5" x="280.82" y="52.18" width="0.91" height="15.08" rx="0.38" ry="0.38"/><path class="cls-1" d="M312.42,66c0.08,0.54-3.73,1.17-11.13.37-4-.43-10.84-3.7-13.7-3.7-7.28,0-14.39,4.75-18,6.06-2,.71-31.28.5-43,0.28-0.55,0,47.47-9.2,58.7-8.61,8.49,0.45,11.69,3.67,15.08,4.5C308.48,66.86,312.42,66,312.42,66Z" transform="translate(1.53)"/><path class="cls-5" d="M294.57,63c-2.19-.9-7.28-2.52-9.27-2.34-17,1.54-49.54,6.89-47,8.58L269.63,69c3-2.31,10.9-7.45,18-7.45" transform="translate(1.53)"/><path class="cls-1" d="M279.74,52.18L280,52.25a0.54,0.54,0,0,1,.45.48V64.09c0,0.17.49,3.28-.75,3.18h0.45" transform="translate(1.53)"/><line class="cls-8" x1="280.82" y1="53.68" x2="271.16" y2="62.8"/><line class="cls-8" x1="280.82" y1="54.88" x2="273.51" y2="61.92"/><line class="cls-8" x1="280.67" y1="56.34" x2="275.31" y2="61.51"/><line class="cls-8" x1="280.67" y1="57.23" x2="277.03" y2="60.99"/><line class="cls-8" x1="280.67" y1="58.92" x2="278.7" y2="60.81"/><line class="cls-8" x1="281.81" y1="53.68" x2="289.94" y2="60.69"/><line class="cls-8" x1="281.72" y1="54.8" x2="286.59" y2="59.28"/><polyline class="cls-8" points="281.72 56.34 286.83 60.38 285.17 62.97"/><line class="cls-8" x1="286.59" y1="54.8" x2="279.68" y2="64.49"/><line class="cls-8" x1="286.59" y1="56.61" x2="281.27" y2="63.93"/><line class="cls-8" x1="286.51" y1="58.92" x2="283.51" y2="63.3"/><line class="cls-8" x1="287.49" y1="54.88" x2="293.57" y2="63.68"/><line class="cls-8" x1="287.49" y1="56.61" x2="292.37" y2="63.3"/><line class="cls-8" x1="287.49" y1="58.69" x2="291.17" y2="62.97"/><line class="cls-8" x1="287.49" y1="60.49" x2="289.12" y2="62.65"/><rect class="cls-1" x="286.59" y="53.96" width="0.91" height="15.08" rx="0.38" ry="0.38"/><g class="cls-9"><path class="cls-5" d="M565.47,73.33c-32,0-57.84-3.22-57.84-7.19s25.9-7.19,57.84-7.19" transform="translate(1.53)"/><ellipse class="cls-5" cx="500.78" cy="60.32" rx="41.36" ry="7.19"/><path class="cls-5" d="M565.47,64.84c-29.44,0-53.31-3.22-53.31-7.19s23.87-7.19,53.31-7.19" transform="translate(1.53)"/></g></svg>