<svg id="Layer_2" data-name="Layer 2" xmlns="http://www.w3.org/2000/svg" viewBox="0 0 567.38 77.26"><defs><style>.cls-1{fill:#e5c984;}.cls-2{fill:#d79706;}.cls-3{fill:#fff;}.cls-4{fill:#f8f7f7;opacity:0.24;}.cls-5{fill:#d5741d;}.cls-6,.cls-7,.cls-8{fill:none;stroke-miterlimit:10;}.cls-6,.cls-8{stroke:#b54f17;}.cls-7{stroke:#ed7013;}.cls-8{stroke-width:0.25px;}.cls-9{opacity:0.7;}</style></defs><title>framtidheader</title><rect class="cls-1" x="0.97" width="566.41" height="76.03"/><path class="cls-2" d="M698.19,362.87c-51.41,0-93.09-4.3-93.09-9.6s41.68-9.6,93.09-9.6" transform="translate(-131.72 -287.67)"/><ellipse class="cls-2" cx="459.91" cy="57.77" rx="66.56" ry="9.6"/><path class="cls-2" d="M698.19,351.49c-47.38,0-85.79-4.3-85.79-9.6s38.41-9.6,85.79-9.6" transform="translate(-131.72 -287.67)"/><circle class="cls-3" cx="545.86" cy="25.36" r="4.75"/><circle class="cls-3" cx="502.52" cy="25.3" r="3.56"/><circle class="cls-3" cx="521.91" cy="20.64" r="2.11"/><circle class="cls-3" cx="529.39" cy="28.9" r="2.11"/><circle class="cls-3" cx="557.67" cy="18.53" r="2.11"/><circle class="cls-3" cx="493.65" cy="15.35" r="1.48"/><ellipse class="cls-2" cx="427.86" cy="64.49" rx="115.44" ry="6.52"/><path class="cls-3" d="M355.6,314.94h14.35a17.35,17.35,0,0,0-1.22,1.78,18.34,18.34,0,0,0-.93,2.09l-0.11.28a5.84,5.84,0,0,0-1.8-2.43,6,6,0,0,0-3-.55h-2.64v6.47h0.84v-5.71h0.4q0.86,0,1.83,0,2.82,0,3.53,1.47a3.53,3.53,0,0,0-1.47-.88,9.69,9.69,0,0,0-2.45-.23q-0.59,0-1.48.07v5.34h2.09l2.21-2.34V326l-2.32-2.29h-3.17v7l1.77,1.8h-6.79l2.25-1.8v-5.95a2.56,2.56,0,0,0-1.87.8l-0.26-.29a2.74,2.74,0,0,1,2.13-.89v-0.65l-0.41,0a2.89,2.89,0,0,0-2.23,1.05l-0.1-.22a2.86,2.86,0,0,1,2.74-2v-5.83Zm8.66,9.94h-2.83v5.92l2.43,3h-8l-0.35-.37h7.58l-2-2.47v-6.46h2.78Zm2.48-4.18v6l-0.36-.21v-6Zm4.27-4.92a11.3,11.3,0,0,0-2.49,4.23l-0.29-.19a9.54,9.54,0,0,1,2.53-4.27Z" transform="translate(-131.72 -287.67)"/><path class="cls-3" d="M373,316.6A13.86,13.86,0,0,1,380,314.7a8.52,8.52,0,0,1,4.83,1.27,3.78,3.78,0,0,1,1.9,3.24,3.9,3.9,0,0,1-1.24,2.84,7.27,7.27,0,0,1-3.4,1.79A24.55,24.55,0,0,0,384.7,329a16.6,16.6,0,0,0,3.28,3.82l-0.21.07a18.21,18.21,0,0,0-4,2l-0.21.14-0.07-.44a39.76,39.76,0,0,0-2.48-9.07l-0.06-.14a10.09,10.09,0,0,1-2.56.71h-0.11v5.17l2.43,2.6h-7.15l-0.22-.37h6.58l-2-2.13v-5.57l0.29,0a9.24,9.24,0,0,0,2.64-.62l-0.1-.21-0.14-.4-0.07-.17a24.51,24.51,0,0,1-3.24.54l-0.15,0V331l1.58,1.65h-6.11l1.8-1.65v-4.65H374.3a14.18,14.18,0,0,0-1.45.4l-0.11,0-0.12-.28a8.05,8.05,0,0,1,1-.32l0.73-.18,0.11,0v-0.72a7.43,7.43,0,0,0-2,.36l-0.15.05a6.61,6.61,0,0,1,.28-0.9s0.08-.24.19-0.62l0-.12c0.41,0,.74,0,1,0a5.41,5.41,0,0,0,.69,0v-6.8a8.27,8.27,0,0,0-1.31-.65Zm4.18-.36v7.45a4,4,0,0,0,.76-0.07v-6.8a7,7,0,0,1,1.83-.21q2.7,0,3.66,1.77a7.4,7.4,0,0,0-1.8-1.14,5,5,0,0,0-1.85-.31,5.9,5.9,0,0,0-1.48.17v6.53l0.15,0a9,9,0,0,0,4-1.57,3.42,3.42,0,0,0,1.32-2.79,3.18,3.18,0,0,0-1.19-2.54,4.49,4.49,0,0,0-3-1A5.08,5.08,0,0,0,377.15,316.24Zm6.68,8.3a16.56,16.56,0,0,0,3.08,5.57,14.6,14.6,0,0,0,3.5,3.06,21.85,21.85,0,0,0-5.95,2.57l-0.12.08-0.28-.22a19.7,19.7,0,0,1,5.63-2.54q-4-2.66-6.26-8.49l-0.08-.24q4.23-1.6,4.23-4.9a5.37,5.37,0,0,0-1.09-3,4.18,4.18,0,0,1,1.4,3.24Q387.88,322.89,383.82,324.53Z" transform="translate(-131.72 -287.67)"/><path class="cls-3" d="M404.53,314.94l-1.44,1.63,2.27,6,0.55-.3-2-5.45,1.47-1.69,0.36,0.15-1.4,1.62,1.94,5.16,0.19-.15,0.46-.39a3.94,3.94,0,0,0,.53-0.47,9.59,9.59,0,0,0,1.11,2.82l-0.58,0a3.48,3.48,0,0,0-1.92.41l2.5,6.79,2.07,1.6h-7l1.91-1.6L404,327a15.32,15.32,0,0,0-2.34,2.92l-0.32-.08a17.61,17.61,0,0,1,2.43-3l0.11-.14-0.26-.61a12.31,12.31,0,0,0-2.72,3.18l-0.25-.4q-0.72-1.15-1.84-2.61l-0.14-.17a10,10,0,0,0-1.06,3.84,3.3,3.3,0,0,0,.3,1.47,13.58,13.58,0,0,0,1.43,2l0.3,0.39h-7.47l-0.28-.37h7l-0.24-.29a9,9,0,0,1-1.2-1.72,3.42,3.42,0,0,1-.28-1.45,12.42,12.42,0,0,1,1.15-4.2l-0.61-.64q-0.18.44-.46,1.3l-0.46,1.41a6.28,6.28,0,0,0-.37,1.88,2.8,2.8,0,0,0,.26,1.29,6.87,6.87,0,0,0,1.11,1.4l0.25,0.26h-6.91a8.24,8.24,0,0,0,3.13-2.75,21.82,21.82,0,0,0,2.29-5.34l0.06-.19a3.79,3.79,0,0,0-2.12-.76,9.92,9.92,0,0,0,1.18-2.37l0.24,0.22,0.62,0.58a7,7,0,0,0,.76.62l0.25-.61-0.17-.14q-0.69-.61-1.16-1l-0.12-.1,0.22-.3a10.66,10.66,0,0,1,1.41,1.12l1.88-5.17-1.47-1.58h6.38Zm-4,2.83-2.2,5.81a19.3,19.3,0,0,1,1.81,2.13l0.64,0.88,0.14,0.18,0.14-.15,0.19-.23,0.15-.18a14.4,14.4,0,0,0-2.25-2.7l1.77-4.67Zm0.62,1.6-1.52,4,0.14,0.17,0.57,0.64a13.87,13.87,0,0,1,1.16,1.55l0.14,0.21a12.28,12.28,0,0,1,1.41-1.48Zm7.51,2.36a14.91,14.91,0,0,0,1.52,3.42l-0.35,0-1.12-.1q-0.76-.07-1.11-0.07H407.3l2.31,6.13,3.08,2.72h-8l-0.26-.37h7.34l-2.49-2.2-2.46-6.51a4.22,4.22,0,0,1,1.08-.12,12.38,12.38,0,0,1,1.66.13l-0.17-.3a12,12,0,0,1-1.19-2.95Z" transform="translate(-131.72 -287.67)"/><path class="cls-3" d="M433.2,314.94l-1.89,1.92v14.2l1.7,1.62h-6.36l1.92-1.62v-9.31l-4.38,12.06h-1.33l-0.11-.37H424l4.62-12.86v-2.12l-5.14,14.2h-1l-3.79-11.16v7.32a7.69,7.69,0,0,0,.19,2.07,3.61,3.61,0,0,0,.91,1.34l1.24,1.58h-7.23l-0.25-.37h6.79l-0.51-.76h-6.17l0.29-.15a5.07,5.07,0,0,0,2-1.71,5.76,5.76,0,0,0,.49-2.73V316.65l-1.83-1.71h7.15l-2,1.81,3.91,11.57,0.5-1.2-3.54-10.26,1.81-1.34,0.29,0.24L421,317l3.29,9.64,3.57-9.86-1.69-1.81h7Zm-15.65,3.28v9.93a7.72,7.72,0,0,0,.44,3.14,2.7,2.7,0,0,0,1.8,1.25l-0.12-.21a3.09,3.09,0,0,1-1.35-2.71v-9.2ZM434,316l-1.56,1.12v13.94l2.41,2.74h-7.34l-0.19-.37H434l-1.92-2.17V316.9l1.63-1.12Z" transform="translate(-131.72 -287.67)"/><path class="cls-3" d="M452.13,314.94l-0.17.32L451,316.91a12.23,12.23,0,0,0-.9,2.21l0,0.07-0.14-.1,0-.18a4.08,4.08,0,0,0-1.14-2.18,3.52,3.52,0,0,0-2.26-.61q-0.62,0-1.24.06H445.1v15l1.63,1.51h-6.32l1.94-1.62V317.3h-1a2.29,2.29,0,0,0-2.74,2.53h-0.36a3.46,3.46,0,0,1,.84-2.25,3.27,3.27,0,0,1,2.26-.64h1v-0.68a11.41,11.41,0,0,0-1.34-.08,3.73,3.73,0,0,0-2.57.73,3.46,3.46,0,0,0-.87,2.45H437.4a25.7,25.7,0,0,0-1.84-4.29l-0.08-.14h16.65Zm-2.82,3a4.47,4.47,0,0,0-2.49-.69,5.45,5.45,0,0,0-.66,0l0.06,13.9,2.2,2.6h-7.07l-0.32-.37h6.62l-1.85-2.12V316.91h0.75a5.91,5.91,0,0,1,1.9.21A1.59,1.59,0,0,1,449.3,318Zm3.69-2.16a15.89,15.89,0,0,0-2,4l-0.05.14-0.3-.26,0-.12a13.52,13.52,0,0,1,2-4l0.07-.08Z" transform="translate(-131.72 -287.67)"/><path class="cls-3" d="M454.51,314.94h6.55l-1.85,1.88v14.4l1.74,1.47h-6.44l1.92-1.59V316.67Zm7.18,0.79-1.41,1.4v14.09l2.32,2.6h-7.19l-0.35-.37h6.72l-1.89-2.09V317l1.56-1.55Z" transform="translate(-131.72 -287.67)"/><path class="cls-3" d="M465,314.94h5.45q4,0,5.92,1.54,2.86,2.27,2.86,7.11,0,5-2.5,7.26a6.58,6.58,0,0,1-2.54,1.42,13.58,13.58,0,0,1-3.73.42h-5.88l1.89-1.45v-14.7Zm0.44,18.88-0.21-.37h5.06a12.31,12.31,0,0,0,5.67-1q4.16-2.21,4.16-8.56,0-4.25-1.87-6.31l-0.55-.61-0.17-.19q2.93,1.84,2.93,7,0,5.46-2.9,8-2.23,2-7.27,2h-4.85Zm3.75-17.71v15.51h0.76V317a8.77,8.77,0,0,1,1.31-.11,5.62,5.62,0,0,1,1.79.23,3.86,3.86,0,0,1,1.32.84,7.27,7.27,0,0,0-3.14-.69q-0.36,0-.94.06v14.28a8.19,8.19,0,0,0,2.35-.26,3.74,3.74,0,0,0,1.52-1q2-2,2-6.83t-2.17-6.4a6.72,6.72,0,0,0-4.16-1h-0.65Z" transform="translate(-131.72 -287.67)"/><circle class="cls-3" cx="107.17" cy="18.9" r="4.75"/><circle class="cls-3" cx="65.03" cy="20.04" r="4.75"/><circle class="cls-3" cx="83.21" cy="14.18" r="2.11"/><circle class="cls-3" cx="90.7" cy="22.44" r="2.11"/><circle class="cls-3" cx="118.98" cy="12.07" r="2.11"/><circle class="cls-3" cx="56.02" cy="9.97" r="2.11"/><circle class="cls-3" cx="531.17" cy="305.89" r="4.75" transform="translate(89.51 547.04) rotate(-89.56)"/><circle class="cls-3" cx="489.02" cy="306.7" r="4.75" transform="translate(46.86 505.69) rotate(-89.56)"/><circle class="cls-3" cx="507.25" cy="300.98" r="2.11" transform="translate(70.67 518.25) rotate(-89.56)"/><circle class="cls-3" cx="514.67" cy="309.3" r="2.11" transform="translate(69.72 533.92) rotate(-89.56)"/><circle class="cls-3" cx="543.03" cy="299.15" r="2.11" transform="translate(108.01 552.2) rotate(-89.56)"/><circle class="cls-3" cx="480.09" cy="296.56" r="2.11" transform="translate(48.15 486.7) rotate(-89.56)"/><circle class="cls-3" cx="152.4" cy="313.33" r="2.39" transform="translate(-204.34 -240.36) rotate(-14.29)"/><circle class="cls-3" cx="172.84" cy="307.54" r="2.39" transform="translate(-202.28 -235.49) rotate(-14.29)"/><circle class="cls-3" cx="164.69" cy="312.66" r="1.06" transform="translate(-203.79 -237.35) rotate(-14.29)"/><circle class="cls-3" cx="160.01" cy="309.55" r="1.06" transform="translate(-203.17 -238.6) rotate(-14.29)"/><circle class="cls-3" cx="147.49" cy="318.13" r="1.06" transform="translate(-205.68 -241.42) rotate(-14.29)"/><circle class="cls-3" cx="178.48" cy="311.33" r="1.06" transform="translate(-203.04 -233.98) rotate(-14.29)"/><circle class="cls-3" cx="547.08" cy="319.99" r="4.75" transform="translate(-133.26 -285.03) rotate(-0.28)"/><circle class="cls-3" cx="589.22" cy="318.65" r="4.75" transform="translate(-133.25 -284.82) rotate(-0.28)"/><circle class="cls-3" cx="571.06" cy="324.59" r="2.11" transform="translate(-133.28 -284.91) rotate(-0.28)"/><circle class="cls-3" cx="563.54" cy="316.37" r="2.11" transform="translate(-133.24 -284.95) rotate(-0.28)"/><circle class="cls-3" cx="535.31" cy="326.87" r="2.11" transform="translate(-133.29 -285.08) rotate(-0.28)"/><circle class="cls-3" cx="598.27" cy="328.68" r="2.11" transform="translate(-133.3 -284.78) rotate(-0.28)"/><path class="cls-2" d="M131.72,345.16c70.66,0,127.95,2.78,127.95,6.21s-57.28,6.21-127.95,6.21" transform="translate(-131.72 -287.67)"/><ellipse class="cls-2" cx="146.46" cy="68.76" rx="91.49" ry="6.21"/><path class="cls-2" d="M131.72,352.51c65.13,0,117.92,2.78,117.92,6.21s-52.8,6.21-117.92,6.21" transform="translate(-131.72 -287.67)"/><ellipse class="cls-4" cx="449.25" cy="24.45" rx="118.13" ry="6.56"/><polygon class="cls-2" points="189.87 70.86 172.74 69.92 175.43 7.51 190.58 12.35 189.87 70.86"/><polygon class="cls-5" points="190.58 12.35 187.69 14.22 178.59 12.8 175.43 7.51 180.59 4.63 193.3 8.88 190.58 12.35"/><polygon class="cls-5" points="187.69 14.22 172.74 69.92 185.88 70.64 193.3 8.88 187.69 14.22"/><line class="cls-6" x1="178.59" y1="12.8" x2="173.01" y2="63.69"/><line class="cls-6" x1="193.23" y1="10.27" x2="184.34" y2="70.56"/><line class="cls-6" x1="189.08" y1="12.84" x2="172.74" y2="69.91"/><rect class="cls-5" x="289.83" y="324.25" width="11.46" height="26.32" transform="translate(-112.61 -303.49) rotate(3.17)"/><polygon class="cls-2" points="147.48 42.53 158.84 36.28 157.39 62.56 147.6 62.02 147.48 42.53"/><rect class="cls-5" x="272.43" y="309.13" width="11.46" height="47.57" transform="translate(-112.89 -302.54) rotate(3.17)"/><polygon class="cls-2" points="130.37 32.96 142.03 21.18 139.41 68.68 129.62 68.14 130.37 32.96"/><rect class="cls-5" x="259.68" y="326.23" width="5.84" height="26.32" transform="translate(-112.55 -301.67) rotate(3.17)"/><polygon class="cls-2" points="122.71 44.97 128.69 38.43 127.24 64.7 122.24 64.43 122.71 44.97"/><polygon class="cls-2" points="121.64 64.26 112.85 64.26 112.45 32.26 120.35 34.3 121.64 64.26"/><polygon class="cls-5" points="120.35 34.3 118.92 35.34 114.22 34.87 112.45 32.26 115.02 30.64 121.64 32.45 120.35 34.3"/><polygon class="cls-5" points="118.92 35.34 112.85 64.26 119.59 64.26 121.64 32.45 118.92 35.34"/><line class="cls-7" x1="114.22" y1="34.87" x2="112.81" y2="61.07"/><line class="cls-7" x1="121.64" y1="33.16" x2="118.8" y2="64.26"/><line class="cls-7" x1="119.59" y1="34.6" x2="112.85" y2="64.26"/><rect class="cls-5" x="104.78" y="47.45" width="5.87" height="13.49"/><polygon class="cls-2" points="99.15 50.97 104.78 47.45 104.78 60.93 99.76 60.93 99.15 50.97"/><rect class="cls-5" x="95.76" y="40.2" width="5.87" height="24.38"/><polygon class="cls-2" points="90.12 46.56 95.76 40.2 95.76 64.57 90.73 64.57 90.12 46.56"/><rect class="cls-5" x="89.42" y="49.4" width="3" height="13.49"/><polygon class="cls-2" points="86.54 52.92 89.42 49.4 89.42 62.88 86.86 62.88 86.54 52.92"/><polygon class="cls-2" points="91.21 69.52 82.42 69.52 82.02 37.51 89.91 39.56 91.21 69.52"/><polygon class="cls-5" points="89.91 39.56 88.48 40.6 83.79 40.13 82.02 37.51 84.58 35.89 91.21 37.7 89.91 39.56"/><polygon class="cls-5" points="88.48 40.6 82.42 69.52 89.16 69.52 91.21 37.7 88.48 40.6"/><line class="cls-7" x1="83.79" y1="40.13" x2="82.38" y2="66.32"/><line class="cls-7" x1="91.21" y1="38.41" x2="88.37" y2="69.51"/><line class="cls-7" x1="89.16" y1="39.85" x2="82.42" y2="69.51"/><rect class="cls-5" x="74.35" y="52.7" width="5.87" height="13.49"/><polygon class="cls-2" points="68.71 56.22 74.35 52.7 74.35 66.19 69.33 66.19 68.71 56.22"/><rect class="cls-5" x="65.32" y="45.45" width="5.87" height="24.38"/><polygon class="cls-2" points="59.69 51.81 65.33 45.45 65.33 69.83 60.3 69.83 59.69 51.81"/><rect class="cls-5" x="58.99" y="54.65" width="3" height="13.49"/><polygon class="cls-2" points="56.11 58.17 58.98 54.65 58.98 68.14 56.42 68.14 56.11 58.17"/><polygon class="cls-2" points="65.03 67.51 56.35 68.87 51 37.32 59.11 38.12 65.03 67.51"/><polygon class="cls-5" points="59.11 38.12 57.86 39.37 53.15 39.63 51 37.32 53.28 35.32 60.1 36.09 59.11 38.12"/><polygon class="cls-5" points="57.86 39.37 56.35 68.87 63.01 67.83 60.1 36.09 57.86 39.37"/><line class="cls-7" x1="53.15" y1="39.63" x2="55.82" y2="65.73"/><line class="cls-7" x1="60.21" y1="36.79" x2="62.23" y2="67.95"/><line class="cls-7" x1="58.41" y1="38.52" x2="56.35" y2="68.87"/><rect class="cls-5" x="178.51" y="340.64" width="5.87" height="13.49" transform="translate(-183.39 -255.33) rotate(-8.92)"/><polygon class="cls-2" points="40.75 57.86 45.78 53.51 47.87 66.84 42.91 67.62 40.75 57.86"/><rect class="cls-5" x="169.31" y="334.81" width="5.87" height="24.38" transform="translate(-183.44 -256.76) rotate(-8.92)"/><polygon class="cls-2" points="31.15 54.91 35.73 47.75 39.52 71.83 34.55 72.61 31.15 54.91"/><rect class="cls-5" x="163.65" y="345.18" width="3" height="13.49" transform="translate(-184.29 -257.81) rotate(-8.92)"/><polygon class="cls-2" points="28.6 61.74 30.9 57.82 32.99 71.15 30.46 71.54 28.6 61.74"/><polygon class="cls-2" points="209.78 66.77 201.09 68.13 195.74 36.58 203.85 37.38 209.78 66.77"/><polygon class="cls-5" points="203.85 37.38 202.6 38.62 197.89 38.89 195.74 36.58 198.02 34.58 204.84 35.34 203.85 37.38"/><polygon class="cls-5" points="202.6 38.62 201.09 68.13 207.75 67.09 204.84 35.34 202.6 38.62"/><line class="cls-7" x1="197.89" y1="38.89" x2="200.56" y2="64.98"/><line class="cls-7" x1="204.95" y1="36.05" x2="206.97" y2="67.21"/><line class="cls-7" x1="203.15" y1="37.78" x2="201.09" y2="68.13"/><rect class="cls-5" x="323.25" y="339.9" width="5.87" height="13.49" transform="translate(-181.52 -232.9) rotate(-8.92)"/><polygon class="cls-2" points="185.49 57.12 190.52 52.77 192.61 66.1 187.65 66.88 185.49 57.12"/><rect class="cls-5" x="314.05" y="334.07" width="5.87" height="24.38" transform="translate(-181.57 -234.33) rotate(-8.92)"/><polygon class="cls-2" points="175.89 54.17 180.47 47.01 184.25 71.09 179.29 71.87 175.89 54.17"/><rect class="cls-5" x="308.39" y="344.44" width="3" height="13.49" transform="translate(-182.42 -235.37) rotate(-8.92)"/><polygon class="cls-2" points="173.34 61 175.64 57.08 177.73 70.41 175.2 70.8 173.34 61"/><ellipse class="cls-4" cx="183.58" cy="51.45" rx="175.29" ry="3.28"/><rect class="cls-5" x="279.29" y="52.18" width="0.91" height="15.08" rx="0.38" ry="0.38"/><path class="cls-2" d="M444.14,353.65c0.08,0.54-3.73,1.17-11.13.37-4-.43-10.84-3.7-13.7-3.7-7.28,0-14.39,4.75-18,6.06-1.95.71-31.28,0.5-43,.28-0.55,0,47.47-9.2,58.7-8.61,8.49,0.45,11.69,3.67,15.08,4.5C440.2,354.53,444.14,353.65,444.14,353.65Z" transform="translate(-131.72 -287.67)"/><path class="cls-5" d="M426.29,350.64c-2.19-.9-7.28-2.52-9.27-2.34-17,1.54-49.54,6.89-46.95,8.58l31.28-.25c3-2.31,10.9-7.45,18-7.45" transform="translate(-131.72 -287.67)"/><path class="cls-2" d="M411.46,339.85l0.29,0.07a0.54,0.54,0,0,1,.45.48v11.36c0,0.17.49,3.28-.75,3.18h0.45" transform="translate(-131.72 -287.67)"/><line class="cls-8" x1="279.29" y1="53.68" x2="269.63" y2="62.8"/><line class="cls-8" x1="279.29" y1="54.88" x2="271.98" y2="61.92"/><line class="cls-8" x1="279.14" y1="56.34" x2="273.78" y2="61.51"/><line class="cls-8" x1="279.14" y1="57.23" x2="275.5" y2="60.99"/><line class="cls-8" x1="279.14" y1="58.92" x2="277.17" y2="60.81"/><line class="cls-8" x1="280.28" y1="53.68" x2="288.41" y2="60.69"/><line class="cls-8" x1="280.19" y1="54.8" x2="285.06" y2="59.28"/><polyline class="cls-8" points="280.19 56.34 285.3 60.38 283.64 62.97"/><line class="cls-8" x1="285.06" y1="54.8" x2="278.15" y2="64.49"/><line class="cls-8" x1="285.06" y1="56.61" x2="279.74" y2="63.93"/><line class="cls-8" x1="284.98" y1="58.92" x2="281.98" y2="63.3"/><line class="cls-8" x1="285.96" y1="54.88" x2="292.04" y2="63.68"/><line class="cls-8" x1="285.96" y1="56.61" x2="290.84" y2="63.3"/><line class="cls-8" x1="285.96" y1="58.69" x2="289.64" y2="62.97"/><line class="cls-8" x1="285.96" y1="60.49" x2="287.59" y2="62.65"/><rect class="cls-2" x="285.06" y="53.96" width="0.91" height="15.08" rx="0.38" ry="0.38"/><g class="cls-9"><path class="cls-5" d="M697.19,361c-31.95,0-57.84-3.22-57.84-7.19s25.9-7.19,57.84-7.19" transform="translate(-131.72 -287.67)"/><ellipse class="cls-5" cx="499.25" cy="60.32" rx="41.36" ry="7.19"/><path class="cls-5" d="M697.19,352.51c-29.44,0-53.31-3.22-53.31-7.19s23.87-7.19,53.31-7.19" transform="translate(-131.72 -287.67)"/></g></svg>