<svg id="Layer_1" data-name="Layer 1" xmlns="http://www.w3.org/2000/svg" viewBox="0 0 240.04 32.22"><defs><style>.cls-1{fill:#98d2d4;}.cls-2{fill:#5db884;}.cls-3{fill:#4ca073;}.cls-4{fill:#99852d;}.cls-5{fill:#579e9e;}.cls-6{fill:#fff;}.cls-7{fill:#99c666;}</style></defs><title>header_history</title><rect class="cls-1" width="240" height="32.21"/><ellipse class="cls-2" cx="56.69" cy="13.93" rx="4.89" ry="4.82"/><path class="cls-3" d="M347.2,174.85a4.82,4.82,0,1,1,0,9.64" transform="translate(-290.5 -165.74)"/><rect class="cls-4" x="56.05" y="18.75" width="1.53" height="6.63"/><ellipse class="cls-2" cx="34.33" cy="15.63" rx="2.8" ry="2.76"/><path class="cls-3" d="M324.83,178.62a2.76,2.76,0,1,1,0,5.52" transform="translate(-290.5 -165.74)"/><rect class="cls-4" x="33.96" y="18.39" width="0.87" height="3.8"/><path class="cls-5" d="M530.54,198c-21.78,0-39.44-1.82-39.44-4.07s17.66-4.07,39.44-4.07" transform="translate(-290.5 -165.74)"/><ellipse class="cls-5" cx="194.89" cy="24.83" rx="28.2" ry="4.07"/><path class="cls-5" d="M530.54,193.14c-20.08,0-36.35-1.82-36.35-4.07S510.46,185,530.54,185" transform="translate(-290.5 -165.74)"/><ellipse class="cls-2" cx="203.99" cy="11.57" rx="3.53" ry="3.48"/><path class="cls-3" d="M494.49,173.83a3.48,3.48,0,1,1,0,7" transform="translate(-290.5 -165.74)"/><rect class="cls-4" x="203.53" y="15.05" width="1.1" height="4.79"/><path class="cls-6" d="M376.23,187.58v-10h1.33v4.12h5.21v-4.12h1.33v10h-1.33v-4.72h-5.21v4.72h-1.33Z" transform="translate(-290.5 -165.74)"/><path class="cls-6" d="M387.22,187.58v-10h1.33v10h-1.33Z" transform="translate(-290.5 -165.74)"/><path class="cls-6" d="M391.14,184.37l1.25-.11a2.76,2.76,0,0,0,.41,1.23,2.26,2.26,0,0,0,1,.78,3.82,3.82,0,0,0,1.54.3,3.68,3.68,0,0,0,1.34-.23,1.86,1.86,0,0,0,.86-0.62,1.44,1.44,0,0,0,.28-0.86,1.31,1.31,0,0,0-.27-0.82,2,2,0,0,0-.9-0.59,17.66,17.66,0,0,0-1.78-.49,9.14,9.14,0,0,1-1.93-.63,2.71,2.71,0,0,1-1.07-.93,2.29,2.29,0,0,1-.35-1.25,2.55,2.55,0,0,1,.43-1.42,2.67,2.67,0,0,1,1.26-1,4.77,4.77,0,0,1,1.84-.34,5,5,0,0,1,2,.36,2.83,2.83,0,0,1,1.31,1.06,3,3,0,0,1,.49,1.58l-1.27.1a2.05,2.05,0,0,0-.69-1.44,2.7,2.7,0,0,0-1.75-.49,2.8,2.8,0,0,0-1.75.44,1.32,1.32,0,0,0-.55,1.06,1.14,1.14,0,0,0,.39.89,5.28,5.28,0,0,0,2,.71,13.23,13.23,0,0,1,2.22.64,3,3,0,0,1,1.29,1,2.49,2.49,0,0,1,.42,1.43,2.73,2.73,0,0,1-.46,1.51,3,3,0,0,1-1.32,1.1,4.58,4.58,0,0,1-1.93.39,5.77,5.77,0,0,1-2.28-.4,3.19,3.19,0,0,1-1.44-1.19A3.38,3.38,0,0,1,391.14,184.37Z" transform="translate(-290.5 -165.74)"/><path class="cls-6" d="M404.18,187.58v-8.84h-3.3v-1.18h7.94v1.18H405.5v8.84h-1.33Z" transform="translate(-290.5 -165.74)"/><path class="cls-6" d="M410.22,182.7a5.45,5.45,0,0,1,1.34-3.91,4.56,4.56,0,0,1,3.46-1.41,4.8,4.8,0,0,1,2.5.66,4.33,4.33,0,0,1,1.7,1.85,6,6,0,0,1,.58,2.69,5.91,5.91,0,0,1-.62,2.73,4.2,4.2,0,0,1-1.74,1.82,5,5,0,0,1-2.43.62,4.74,4.74,0,0,1-2.53-.68,4.4,4.4,0,0,1-1.69-1.87A5.66,5.66,0,0,1,410.22,182.7Zm1.37,0a4,4,0,0,0,1,2.85,3.4,3.4,0,0,0,4.91,0,4.26,4.26,0,0,0,1-3,5.13,5.13,0,0,0-.41-2.14,3.18,3.18,0,0,0-1.21-1.42,3.28,3.28,0,0,0-1.79-.5,3.39,3.39,0,0,0-2.42,1A4.32,4.32,0,0,0,411.59,182.72Z" transform="translate(-290.5 -165.74)"/><path class="cls-6" d="M422.23,187.58v-10h4.44a5.91,5.91,0,0,1,2,.27,2.23,2.23,0,0,1,1.11,1,2.84,2.84,0,0,1,.42,1.51,2.52,2.52,0,0,1-.69,1.8,3.49,3.49,0,0,1-2.13.93,3.41,3.41,0,0,1,.8.5,6.86,6.86,0,0,1,1.1,1.33l1.74,2.73H429.4l-1.33-2.08q-0.58-.9-1-1.38a3,3,0,0,0-.67-0.67,2,2,0,0,0-.61-0.27,4,4,0,0,0-.74,0h-1.54v4.45h-1.33Zm1.33-5.6h2.85a4.27,4.27,0,0,0,1.42-.19,1.51,1.51,0,0,0,.78-0.6,1.63,1.63,0,0,0,.27-0.9,1.49,1.49,0,0,0-.52-1.17,2.42,2.42,0,0,0-1.63-.46h-3.17V182Z" transform="translate(-290.5 -165.74)"/><path class="cls-6" d="M433.25,187.58v-10h1.33v10h-1.33Z" transform="translate(-290.5 -165.74)"/><path class="cls-6" d="M436.51,187.58l3.85-10h1.43l4.1,10h-1.51l-1.17-3H439l-1.1,3h-1.41Zm2.89-4.12h3.4l-1-2.78q-0.48-1.26-.71-2.08a12.81,12.81,0,0,1-.54,1.91Z" transform="translate(-290.5 -165.74)"/><path class="cls-7" d="M290.54,187.41c29.94,0,54.21,1.18,54.21,2.63s-24.27,2.63-54.21,2.63" transform="translate(-290.5 -165.74)"/><ellipse class="cls-7" cx="62.09" cy="26.44" rx="38.77" ry="2.63"/><path class="cls-7" d="M290.54,190.53c27.6,0,50,1.18,50,2.63s-22.37,2.63-50,2.63" transform="translate(-290.5 -165.74)"/><ellipse class="cls-2" cx="16.45" cy="12.02" rx="6.52" ry="6.43"/><path class="cls-3" d="M307,171.34a6.43,6.43,0,1,1,0,12.86" transform="translate(-290.5 -165.74)"/><rect class="cls-4" x="15.59" y="18.45" width="2.04" height="8.84"/><circle class="cls-6" cx="45" cy="7.61" r="2.01"/><circle class="cls-6" cx="27.14" cy="8.09" r="2.01"/><circle class="cls-6" cx="34.85" cy="5.61" r="0.89"/><circle class="cls-6" cx="38.02" cy="9.11" r="0.89"/><circle class="cls-6" cx="50" cy="4.71" r="0.89"/><circle class="cls-6" cx="23.33" cy="3.82" r="0.89"/></svg>