<?xml version="1.0" encoding="utf-8"?>
<!-- Generator: Adobe Illustrator 19.2.1, SVG Export Plug-In . SVG Version: 6.00 Build 0)  -->
<svg version="1.1" xmlns="http://www.w3.org/2000/svg" xmlns:xlink="http://www.w3.org/1999/xlink" x="0px" y="0px"
	 viewBox="0 0 841.9 595.3" style="enable-background:new 0 0 841.9 595.3;" xml:space="preserve">
<style type="text/css">
	.st0{fill:#98D2D4;}
	.st1{fill:#5DB884;}
	.st2{fill:#4CA073;}
	.st3{fill:#99852D;}
	.st4{fill:#579E9E;}
	.st5{fill:#FFFFFF;}
	.st6{font-family:'ArialMT';}
	.st7{font-size:14px;}
	.st8{fill:#99C666;}
</style>
<g id="Layer_1">
	<rect x="290.5" y="165.7" class="st0" width="240" height="32.2"/>
</g>
<g id="Layer_2">
	<g>
		<ellipse class="st1" cx="347.2" cy="179.7" rx="4.9" ry="4.8"/>
		<path class="st2" d="M347.2,174.8c2.7,0,4.9,2.2,4.9,4.8c0,2.7-2.2,4.8-4.9,4.8"/>
		<rect x="346.6" y="184.5" class="st3" width="1.5" height="6.6"/>
	</g>
	<g>
		<ellipse class="st1" cx="324.8" cy="181.4" rx="2.8" ry="2.8"/>
		<path class="st2" d="M324.8,178.6c1.5,0,2.8,1.2,2.8,2.8s-1.3,2.8-2.8,2.8"/>
		<rect x="324.5" y="184.1" class="st3" width="0.9" height="3.8"/>
	</g>
	<g>
		<path class="st4" d="M530.5,198c-21.8,0-39.4-1.8-39.4-4.1c0-2.2,17.7-4.1,39.4-4.1"/>
		<ellipse class="st4" cx="485.4" cy="190.6" rx="28.2" ry="4.1"/>
		<path class="st4" d="M530.5,193.1c-20.1,0-36.4-1.8-36.4-4.1c0-2.2,16.3-4.1,36.4-4.1"/>
	</g>
	<g>
		<ellipse class="st1" cx="494.5" cy="177.3" rx="3.5" ry="3.5"/>
		<path class="st2" d="M494.5,173.8c1.9,0,3.5,1.6,3.5,3.5c0,1.9-1.6,3.5-3.5,3.5"/>
		<rect x="494" y="180.8" class="st3" width="1.1" height="4.8"/>
	</g>
	<text transform="matrix(1 0 0 1 375.1076 187.5848)" class="st5 st6 st7">HISTORIA</text>
	<g>
		<path class="st8" d="M290.5,187.4c29.9,0,54.2,1.2,54.2,2.6c0,1.5-24.3,2.6-54.2,2.6"/>
		<ellipse class="st8" cx="352.6" cy="192.2" rx="38.8" ry="2.6"/>
		<path class="st8" d="M290.5,190.5c27.6,0,50,1.2,50,2.6c0,1.5-22.4,2.6-50,2.6"/>
	</g>
	<g>
		<ellipse class="st1" cx="307" cy="177.8" rx="6.5" ry="6.4"/>
		<path class="st2" d="M307,171.3c3.6,0,6.5,2.9,6.5,6.4c0,3.6-2.9,6.4-6.5,6.4"/>
		<rect x="306.1" y="184.2" class="st3" width="2" height="8.8"/>
	</g>
	<circle class="st5" cx="335.5" cy="173.4" r="2"/>
	<circle class="st5" cx="317.6" cy="173.8" r="2"/>
	<circle class="st5" cx="325.4" cy="171.4" r="0.9"/>
	<circle class="st5" cx="328.5" cy="174.8" r="0.9"/>
	<circle class="st5" cx="340.5" cy="170.5" r="0.9"/>
	<circle class="st5" cx="313.8" cy="169.6" r="0.9"/>
</g>
</svg>
