<svg id="Layer_1" data-name="Layer 1" xmlns="http://www.w3.org/2000/svg" viewBox="0 0 240.04 32.22"><defs><style>.cls-1{fill:#98d2d4;}.cls-2{fill:#5db884;}.cls-3{fill:#4ca073;}.cls-4{fill:#99852d;}.cls-5{fill:#579e9e;}.cls-6{font-size:14px;font-family:Arial;}.cls-6,.cls-8{fill:#fff;}.cls-7{fill:#99c666;}</style></defs><title>header_history</title><rect class="cls-1" width="240" height="32.21"/><ellipse class="cls-2" cx="56.69" cy="13.93" rx="4.89" ry="4.82"/><path class="cls-3" d="M347.2,174.85a4.82,4.82,0,1,1,0,9.64" transform="translate(-290.5 -165.74)"/><rect class="cls-4" x="56.05" y="18.75" width="1.53" height="6.63"/><ellipse class="cls-2" cx="34.33" cy="15.63" rx="2.8" ry="2.76"/><path class="cls-3" d="M324.83,178.62a2.76,2.76,0,1,1,0,5.52" transform="translate(-290.5 -165.74)"/><rect class="cls-4" x="33.96" y="18.39" width="0.87" height="3.8"/><path class="cls-5" d="M530.54,198c-21.78,0-39.44-1.82-39.44-4.07s17.66-4.07,39.44-4.07" transform="translate(-290.5 -165.74)"/><ellipse class="cls-5" cx="194.89" cy="24.83" rx="28.2" ry="4.07"/><path class="cls-5" d="M530.54,193.14c-20.08,0-36.35-1.82-36.35-4.07S510.46,185,530.54,185" transform="translate(-290.5 -165.74)"/><ellipse class="cls-2" cx="203.99" cy="11.57" rx="3.53" ry="3.48"/><path class="cls-3" d="M494.49,173.83a3.48,3.48,0,1,1,0,7" transform="translate(-290.5 -165.74)"/><rect class="cls-4" x="203.53" y="15.05" width="1.1" height="4.79"/><text class="cls-6" transform="translate(84.6 21.84)">HIS<tspan x="25.44" y="0">T</tspan><tspan x="34.44" y="0">ORI</tspan><tspan x="61.43" y="0">A</tspan></text><path class="cls-7" d="M290.54,187.41c29.94,0,54.21,1.18,54.21,2.63s-24.27,2.63-54.21,2.63" transform="translate(-290.5 -165.74)"/><ellipse class="cls-7" cx="62.09" cy="26.44" rx="38.77" ry="2.63"/><path class="cls-7" d="M290.54,190.53c27.6,0,50,1.18,50,2.63s-22.37,2.63-50,2.63" transform="translate(-290.5 -165.74)"/><ellipse class="cls-2" cx="16.45" cy="12.02" rx="6.52" ry="6.43"/><path class="cls-3" d="M307,171.34a6.43,6.43,0,1,1,0,12.86" transform="translate(-290.5 -165.74)"/><rect class="cls-4" x="15.59" y="18.45" width="2.04" height="8.84"/><circle class="cls-8" cx="45" cy="7.61" r="2.01"/><circle class="cls-8" cx="27.14" cy="8.09" r="2.01"/><circle class="cls-8" cx="34.85" cy="5.61" r="0.89"/><circle class="cls-8" cx="38.02" cy="9.11" r="0.89"/><circle class="cls-8" cx="50" cy="4.71" r="0.89"/><circle class="cls-8" cx="23.33" cy="3.82" r="0.89"/></svg>