<svg id="Layer_3" data-name="Layer 3" xmlns="http://www.w3.org/2000/svg" viewBox="0 0 566.41 76.47"><defs><style>.cls-1{fill:#98d2d4;}.cls-2{fill:#5db884;}.cls-3{fill:#4ca073;}.cls-4{fill:#99852d;}.cls-5{fill:#579e9e;}.cls-6{fill:#fff;}.cls-7{fill:#99c666;}</style></defs><title>historiaheader3</title><rect class="cls-1" width="566.41" height="76.03"/><ellipse class="cls-2" cx="178.24" cy="39.54" rx="11.54" ry="11.38"/><path class="cls-3" d="M310.44,91.94a11.38,11.38,0,1,1,0,22.76" transform="translate(-132.21 -63.78)"/><rect class="cls-4" x="176.73" y="50.92" width="3.6" height="15.66"/><ellipse class="cls-2" cx="130.02" cy="48.85" rx="6.6" ry="6.51"/><path class="cls-3" d="M262.23,106.12a6.51,6.51,0,1,1,0,13" transform="translate(-132.21 -63.78)"/><rect class="cls-4" x="129.16" y="55.36" width="2.06" height="8.96"/><path class="cls-5" d="M698.61,137.88c-51.41,0-93.09-4.3-93.09-9.6s41.68-9.6,93.09-9.6" transform="translate(-132.21 -63.78)"/><ellipse class="cls-5" cx="458.32" cy="56.66" rx="66.56" ry="9.6"/><path class="cls-5" d="M698.61,126.5c-47.38,0-85.79-4.3-85.79-9.6s38.41-9.6,85.79-9.6" transform="translate(-132.21 -63.78)"/><path class="cls-6" d="M344.71,90.48h6.5l-1.88,1.84v6a7.17,7.17,0,0,0,.75.08V92.45L351.58,91l0.28,0.25-1.42,1.41v5.77l0.46,0q1.06,0.1,2.06.1a19,19,0,0,0,2.48-.14V92l-1.69-1.55h6.39l-1.91,1.84v14.41l1.67,1.49h-6.36l1.89-1.62v-5.86A10.28,10.28,0,0,1,353,101q-1.16,0-2.41-.12h-0.19v5.85l2.28,2.63h-7.15l-0.36-.37H352l-1.88-2.06v-6.36l0.4,0q1.83,0.14,2.64.14a6.71,6.71,0,0,0,2.31-.36v-0.5a20.76,20.76,0,0,1-3,.19q-0.93,0-1.35,0l-1.4-.12-0.32,0v6.86l1.77,1.49h-6.39l1.85-1.62v-6a2.21,2.21,0,0,0-1.85.91l-0.29-.14a2.93,2.93,0,0,1,2.14-1.12V99.7a2.92,2.92,0,0,0-2.45,1.18l-0.21-.14a3.54,3.54,0,0,1,2.66-2.35V92.16Zm16,0.77-1.41,1.37v14.1l2.3,2.63h-7.18l-0.35-.37h6.73L359,106.89V92.48L360.49,91Z" transform="translate(-132.21 -63.78)"/><path class="cls-6" d="M363.58,90.48h6.55l-1.85,1.88v14.4l1.74,1.47h-6.44l1.92-1.59V92.2Zm7.18,0.79-1.41,1.4v14.09l2.32,2.6h-7.19l-0.35-.37h6.72L369,106.89V92.54L370.52,91Z" transform="translate(-132.21 -63.78)"/><path class="cls-6" d="M386.63,90.63a9.22,9.22,0,0,0-1.15,2,27.52,27.52,0,0,1-1.12,2.54l-0.07.08L384.21,95a12.28,12.28,0,0,0-.64-1.73,3.24,3.24,0,0,0-.75-0.93A4.19,4.19,0,0,0,380,91.26a3.7,3.7,0,0,0-2.46.82,2.59,2.59,0,0,0-1,2.07q0,2.32,3.5,3.17l2.34,0.57q5,1.2,5,5.27a4.93,4.93,0,0,1-1.71,3.81,6.07,6.07,0,0,1-4.22,1.54,14.77,14.77,0,0,1-3.53-.48l-1.62-.4a7.23,7.23,0,0,0-1.62-.23,3.39,3.39,0,0,0-1.74.54l-0.11-.19a18.58,18.58,0,0,0,2.41-4.92l0.25,0.07a5.06,5.06,0,0,0,1.74,3.37,5.77,5.77,0,0,0,3.8,1.2,4.64,4.64,0,0,0,2.95-.86,2.78,2.78,0,0,0,1.09-2.31,3.29,3.29,0,0,0-1.52-2.77,13.13,13.13,0,0,0-4.48-1.44,7.19,7.19,0,0,1-3.79-1.7,5,5,0,0,1,.39-6.85,6,6,0,0,1,4.09-1.36,14.79,14.79,0,0,1,3.78.58A6.33,6.33,0,0,0,385,91a3,3,0,0,0,1.48-.47Zm0,8.82a4.63,4.63,0,0,1,1.88,3.9,5.78,5.78,0,0,1-2,4.47,7.2,7.2,0,0,1-5,1.83,11,11,0,0,1-2.7-.3l-2.21-.54a6.81,6.81,0,0,0-1.66-.19,3.32,3.32,0,0,0-1.45.32l-0.17-.4a3.47,3.47,0,0,1,1.47-.33,8.43,8.43,0,0,1,1.89.25l2.13,0.51a11.49,11.49,0,0,0,2.68.3,6.76,6.76,0,0,0,4.71-1.76,5.55,5.55,0,0,0,1.94-4.27,5.24,5.24,0,0,0-1.49-3.71V99.45ZM375.06,99l0.47,0.26q0.46,0.82,2.67,1.36l2.23,0.55a15.26,15.26,0,0,1,3,1,2.29,2.29,0,0,1,1.07,1.24l-0.1.06a4,4,0,0,0-1.35-1.05,17.44,17.44,0,0,0-2.79-.82,21.73,21.73,0,0,1-4-1.2A2,2,0,0,1,375.06,99Zm1.73,4.48a4.72,4.72,0,0,0,2.74,3.53v0.11a4.23,4.23,0,0,1-3.11-3.57ZM383.45,94a4.46,4.46,0,0,0-3.26-1.62,2.54,2.54,0,0,0-1.74.61,2,2,0,0,0-.69,1.55,2.89,2.89,0,0,0,1.4,2.1l0.11,0.07-0.07.11a2.58,2.58,0,0,1-1.83-2.36,2.23,2.23,0,0,1,.77-1.76,3,3,0,0,1,2-.68,4.15,4.15,0,0,1,2.08.5,3,3,0,0,1,1.31,1.42Zm4-2.75-0.12.21a19.67,19.67,0,0,0-1,1.83q-1,2-1.09,2.27l-0.07.1-0.33-.14,0.06-.12q0.4-.91,1.16-2.38l0.94-1.83,0.07-.11Z" transform="translate(-132.21 -63.78)"/><path class="cls-6" d="M406.19,90.48l-0.17.32-0.94,1.66a12.28,12.28,0,0,0-.9,2.21l0,0.07-0.14-.1,0-.18a4.08,4.08,0,0,0-1.14-2.19,3.52,3.52,0,0,0-2.26-.61q-0.62,0-1.24.06h-0.17v15l1.63,1.51h-6.32l1.94-1.62V92.84h-1a2.28,2.28,0,0,0-2.74,2.53h-0.36a3.47,3.47,0,0,1,.84-2.25,3.27,3.27,0,0,1,2.26-.64h1V91.8a11.43,11.43,0,0,0-1.34-.08,3.74,3.74,0,0,0-2.57.73,3.46,3.46,0,0,0-.87,2.45h-0.17a25.66,25.66,0,0,0-1.84-4.29l-0.08-.14h16.65Zm-2.82,3a4.47,4.47,0,0,0-2.49-.69,5.54,5.54,0,0,0-.66,0l0.06,13.9,2.2,2.6h-7.07l-0.32-.37h6.62l-1.85-2.12V92.45h0.75a5.91,5.91,0,0,1,1.9.21A1.59,1.59,0,0,1,403.37,93.5Zm3.69-2.16a15.88,15.88,0,0,0-2,4l-0.06.14-0.3-.26,0-.12a13.53,13.53,0,0,1,2-4l0.07-.08Z" transform="translate(-132.21 -63.78)"/><path class="cls-6" d="M416.33,90.3a6.5,6.5,0,0,1,5.37,2.54,10.67,10.67,0,0,1,2,6.8,9.74,9.74,0,0,1-2,6.42,6.57,6.57,0,0,1-5.33,2.39,7.21,7.21,0,0,1-4.7-1.69q-3-2.49-3-7.37a10,10,0,0,1,2.07-6.64A6.93,6.93,0,0,1,416.33,90.3Zm0,1.19q-4.67,0-4.67,8.21,0,7.59,4.6,7.59a3.55,3.55,0,0,0,3.26-2,12.35,12.35,0,0,0,1.12-5.88q0-4.38-1.08-6.11A3.61,3.61,0,0,0,416.33,91.48Zm4.41-.48a6.83,6.83,0,0,1,3.13,3.26A11.85,11.85,0,0,1,425,99.6a10.93,10.93,0,0,1-2.26,7.19,7.33,7.33,0,0,1-5.94,2.74,7,7,0,0,1-4.4-1.59v-0.07a7.08,7.08,0,0,0,4.3,1.26,7.15,7.15,0,0,0,5.7-2.61,9.94,9.94,0,0,0,2.23-6.68,12.85,12.85,0,0,0-1-5.3,7.28,7.28,0,0,0-2.88-3.39V91Zm-1.45,2.56-0.23-.14a5.11,5.11,0,0,0-2.43-.73q-3.64,0-3.64,7.15,0,5.23,2.25,6.93l-0.12.14a5.36,5.36,0,0,1-2-2.58,12.86,12.86,0,0,1-.59-4.32q0-7.67,4-7.67A3.06,3.06,0,0,1,419.29,93.56Z" transform="translate(-132.21 -63.78)"/><path class="cls-6" d="M428.31,92.13a13.86,13.86,0,0,1,7.05-1.89,8.51,8.51,0,0,1,4.83,1.27,3.78,3.78,0,0,1,1.9,3.24,3.9,3.9,0,0,1-1.25,2.84,7.27,7.27,0,0,1-3.4,1.79A24.5,24.5,0,0,0,440,104.5a16.57,16.57,0,0,0,3.28,3.82l-0.21.07a18.2,18.2,0,0,0-4,2l-0.21.14-0.07-.44a39.78,39.78,0,0,0-2.47-9.07l-0.06-.14a10.09,10.09,0,0,1-2.56.71h-0.11v5.17l2.43,2.6H428.9l-0.22-.37h6.58l-2-2.13v-5.57l0.29,0a9.2,9.2,0,0,0,2.64-.62l-0.1-.21-0.14-.4-0.07-.17a24.41,24.41,0,0,1-3.24.54l-0.15,0v6.17l1.58,1.65H428l1.8-1.65v-4.65h-0.11a14.22,14.22,0,0,0-1.45.4l-0.11,0L428,102.1a8,8,0,0,1,1-.32l0.73-.18,0.11,0v-0.72a7.44,7.44,0,0,0-2,.36l-0.15.06a6.63,6.63,0,0,1,.28-0.9s0.08-.24.19-0.62l0-.12,1,0a5.42,5.42,0,0,0,.69,0v-6.8a8.29,8.29,0,0,0-1.31-.65Zm4.18-.36v7.45a4,4,0,0,0,.76-0.07v-6.8a7,7,0,0,1,1.83-.21q2.7,0,3.67,1.77a7.41,7.41,0,0,0-1.8-1.14,5,5,0,0,0-1.85-.31,5.88,5.88,0,0,0-1.48.17v6.53l0.15,0a9,9,0,0,0,4-1.57,3.42,3.42,0,0,0,1.32-2.79,3.18,3.18,0,0,0-1.19-2.54,4.49,4.49,0,0,0-3-1A5.09,5.09,0,0,0,432.49,91.77Zm6.68,8.3a16.55,16.55,0,0,0,3.08,5.57,14.6,14.6,0,0,0,3.5,3.06,21.83,21.83,0,0,0-5.95,2.57l-0.12.08-0.28-.22a19.72,19.72,0,0,1,5.63-2.54q-4-2.66-6.26-8.49l-0.08-.24q4.23-1.6,4.23-4.9a5.37,5.37,0,0,0-1.09-3,4.18,4.18,0,0,1,1.4,3.24Q443.22,98.43,439.17,100.07Z" transform="translate(-132.21 -63.78)"/><path class="cls-6" d="M447.07,90.48h6.55l-1.85,1.88v14.4l1.74,1.47h-6.44l1.92-1.59V92.2Zm7.18,0.79-1.41,1.4v14.09l2.32,2.6H448l-0.35-.37h6.72l-1.89-2.09V92.54L454,91Z" transform="translate(-132.21 -63.78)"/><path class="cls-6" d="M469.95,90.48l-1.44,1.63,2.27,6,0.55-.3-2-5.45,1.47-1.69,0.36,0.15-1.4,1.62,1.94,5.16,0.19-.15,0.46-.39a3.88,3.88,0,0,0,.53-0.47,9.59,9.59,0,0,0,1.11,2.82l-0.58,0a3.48,3.48,0,0,0-1.92.41l2.5,6.79,2.07,1.6h-7l1.91-1.6-1.53-4a15.3,15.3,0,0,0-2.34,2.92l-0.32-.08a17.63,17.63,0,0,1,2.43-3l0.11-.14-0.26-.61a12.29,12.29,0,0,0-2.72,3.18l-0.25-.4q-0.72-1.15-1.84-2.61l-0.14-.17a10,10,0,0,0-1.06,3.84,3.3,3.3,0,0,0,.3,1.47,13.59,13.59,0,0,0,1.43,2l0.3,0.39h-7.47L457.3,109h7l-0.24-.29a9,9,0,0,1-1.2-1.72,3.42,3.42,0,0,1-.28-1.45,12.42,12.42,0,0,1,1.15-4.2l-0.61-.64q-0.18.44-.46,1.3l-0.46,1.41a6.26,6.26,0,0,0-.37,1.88,2.79,2.79,0,0,0,.26,1.29,6.89,6.89,0,0,0,1.11,1.4l0.25,0.26h-6.91a8.24,8.24,0,0,0,3.13-2.75,21.81,21.81,0,0,0,2.29-5.34l0.06-.19a3.79,3.79,0,0,0-2.12-.76,9.92,9.92,0,0,0,1.18-2.36L461.35,97,462,97.61a6.93,6.93,0,0,0,.76.62l0.25-.61-0.17-.14q-0.69-.61-1.16-1l-0.12-.1,0.22-.3a10.59,10.59,0,0,1,1.41,1.12L465,92.05l-1.47-1.58h6.38Zm-4,2.83-2.2,5.81a19.31,19.31,0,0,1,1.81,2.13l0.64,0.89,0.14,0.18,0.14-.15,0.19-.23,0.15-.18a14.38,14.38,0,0,0-2.25-2.7l1.77-4.67Zm0.62,1.6-1.52,4,0.14,0.17,0.57,0.64a13.82,13.82,0,0,1,1.16,1.55l0.14,0.21a12.25,12.25,0,0,1,1.41-1.48ZM474,97.28a14.89,14.89,0,0,0,1.52,3.42l-0.35,0-1.12-.1q-0.76-.07-1.11-0.07h-0.28l2.31,6.13,3.08,2.72h-8l-0.26-.37h7.34l-2.49-2.2-2.46-6.51a4.22,4.22,0,0,1,1.08-.12,12.36,12.36,0,0,1,1.66.12l-0.17-.3A12,12,0,0,1,473.61,97Z" transform="translate(-132.21 -63.78)"/><path class="cls-7" d="M132.37,120.48c70.66,0,127.95,2.78,127.95,6.21s-57.28,6.21-127.95,6.21" transform="translate(-132.21 -63.78)"/><ellipse class="cls-7" cx="166.8" cy="67.96" rx="91.49" ry="6.21"/><path class="cls-7" d="M132.37,127.84c65.13,0,117.92,2.78,117.92,6.21s-52.8,6.21-117.92,6.21" transform="translate(-132.21 -63.78)"/><ellipse class="cls-2" cx="77.21" cy="33.07" rx="15.39" ry="15.17"/><path class="cls-3" d="M209.42,81.68a15.17,15.17,0,1,1,0,30.34" transform="translate(-132.21 -63.78)"/><rect class="cls-4" x="75.2" y="48.24" width="4.81" height="20.87"/><circle class="cls-6" cx="138.73" cy="20.82" r="4.75"/><circle class="cls-6" cx="96.58" cy="21.95" r="4.75"/><circle class="cls-6" cx="114.77" cy="16.1" r="2.11"/><circle class="cls-6" cx="122.26" cy="24.36" r="2.11"/><circle class="cls-6" cx="150.53" cy="13.99" r="2.11"/><circle class="cls-6" cx="87.58" cy="11.88" r="2.11"/><circle class="cls-6" cx="513.19" cy="17.92" r="4.75"/><circle class="cls-6" cx="469.85" cy="17.86" r="3.56"/><circle class="cls-6" cx="489.24" cy="13.2" r="2.11"/><circle class="cls-6" cx="496.72" cy="21.46" r="2.11"/><circle class="cls-6" cx="525" cy="11.09" r="2.11"/><circle class="cls-6" cx="460.98" cy="7.91" r="1.48"/><path class="cls-7" d="M698.56,118.83c-75.76,0-210.46-5.57-210.46-7.94s134.7-3.36,210.46-3.36" transform="translate(-132.21 -63.78)"/><ellipse class="cls-2" cx="391.6" cy="36.1" rx="5.48" ry="5.4"/><path class="cls-3" d="M523.81,94.48a5.4,5.4,0,1,1,0,10.8" transform="translate(-132.21 -63.78)"/><rect class="cls-4" x="390.88" y="41.5" width="1.71" height="7.43"/><ellipse class="cls-2" cx="373.46" cy="40.7" rx="2.42" ry="2.39"/><path class="cls-3" d="M505.67,102.09a2.39,2.39,0,1,1,0,4.78" transform="translate(-132.21 -63.78)"/><rect class="cls-4" x="373.14" y="43.09" width="0.76" height="3.29"/><ellipse class="cls-5" cx="426.27" cy="63.38" rx="115.44" ry="6.52"/></svg>