<svg id="Layer_2" data-name="Layer 2" xmlns="http://www.w3.org/2000/svg" viewBox="0 0 574.07 80.75"><defs><style>.cls-1{fill:#d99fc8;}.cls-2{fill:#b460a2;}.cls-3{fill:#fff;}.cls-4{fill:#c598c5;}.cls-5{fill:#9b579b;}.cls-6,.cls-7{fill:none;stroke:#662483;stroke-miterlimit:10;}.cls-6{stroke-width:0.5px;}.cls-7{stroke-width:0.75px;}.cls-8{fill:#f8f7f7;opacity:0.24;isolation:isolate;}</style></defs><title>nutidheader3</title><rect class="cls-1" width="574.07" height="80.75"/><rect class="cls-1" x="5.76" y="1.75" width="566.41" height="76.03"/><path class="cls-2" d="M566.46,75.2c-51.41,0-93.09-4.3-93.09-9.6S515,56,566.46,56" transform="translate(4.79 1.75)"/><ellipse class="cls-2" cx="464.7" cy="59.52" rx="66.56" ry="9.6"/><path class="cls-2" d="M566.46,63.82c-47.38,0-85.79-4.3-85.79-9.6s38.41-9.6,85.79-9.6" transform="translate(4.79 1.75)"/><circle class="cls-3" cx="550.65" cy="27.11" r="4.75"/><circle class="cls-3" cx="507.31" cy="27.05" r="3.56"/><circle class="cls-3" cx="526.7" cy="22.39" r="2.11"/><circle class="cls-3" cx="534.18" cy="30.65" r="2.11"/><circle class="cls-3" cx="562.46" cy="20.28" r="2.11"/><circle class="cls-3" cx="498.44" cy="17.1" r="1.48"/><ellipse class="cls-2" cx="432.65" cy="66.24" rx="115.44" ry="6.52"/><path class="cls-3" d="M255.34,27.27a5.62,5.62,0,0,0-2,1.49,5.82,5.82,0,0,0-.69,3.17V45h-2.34l-6.55-12.67v8.13l0.17,2a3.07,3.07,0,0,0,1.26,2l0.11,0.1q-1.91-.64-1.91-4.08V31.63l-0.75-1.45v8a15.48,15.48,0,0,0,.5,5,3.33,3.33,0,0,0,2.34,1.71l1.2,1.29h-7.5L239,45.81h6.93l-0.72-.76h-6.41A3.9,3.9,0,0,0,241,43.42a8,8,0,0,0,.55-3.51V28.8l-1.84-1.53h7l-2,1.31,6.69,13.05V40L245.66,28.8l1.94-1.31,0.26,0.26-1.71,1.16,5.25,10.32V32a8.54,8.54,0,0,0-.39-3.21,4,4,0,0,0-1.94-1.56h6.27Zm0.48,1-0.25.42a2.1,2.1,0,0,0-1.44.92,4.88,4.88,0,0,0-.38,2.26V46.12h-3l-0.18-.37h2.78V32a5.25,5.25,0,0,1,.5-2.72,2.76,2.76,0,0,1,2-1v0Z" transform="translate(4.79 1.75)"/><path class="cls-3" d="M273.87,27.27l-2.48,2V38.2a27.39,27.39,0,0,1-.16,3.54,4.21,4.21,0,0,1-.63,1.77q-1.19,1.77-4.62,1.77-3.62,0-5.06-1.77-1.16-1.39-1.16-5.39V28.94l-1.88-1.69h6.53l-1.87,1.87V40.25a4.07,4.07,0,0,0,.86,2.92,4,4,0,0,0,2.89.86,3.38,3.38,0,0,0,3.08-1.31q0.68-1.06.68-4.56l0.06-8.95-2.16-2h5.89Zm0.47,0.94-1.88,1.56v8.59q0,4.22-.66,5.5-1.36,2.6-5.3,2.6a7,7,0,0,1-5.12-1.7l0.11,0.06L262,45.1a8.57,8.57,0,0,0,4.37,1q3.82,0,5.06-2.41,0.66-1.3.66-5.23V29.61l2.06-1.69ZM265,28l-1.36,1.37V40.62l0.43,1.76a5.79,5.79,0,0,0,1.2,1.27v0.12a2.89,2.89,0,0,1-1.6-1.37,6.6,6.6,0,0,1-.44-2.78V29.24l1.52-1.52Z" transform="translate(4.79 1.75)"/><path class="cls-3" d="M292,27.27l-0.17.32-0.94,1.66a12.28,12.28,0,0,0-.9,2.21v0.07l-0.14-.1V31.25a4.08,4.08,0,0,0-1.14-2.19,3.52,3.52,0,0,0-2.26-.61q-0.62,0-1.24.06h-0.17v15L286.7,45h-6.32l1.94-1.62V29.63h-1a2.28,2.28,0,0,0-2.74,2.53h-0.36a3.47,3.47,0,0,1,.84-2.25,3.27,3.27,0,0,1,2.26-.64h1V28.59a11.43,11.43,0,0,0-1.34-.08,3.74,3.74,0,0,0-2.57.73,3.46,3.46,0,0,0-.87,2.45h-0.17a25.66,25.66,0,0,0-1.84-4.29l-0.08-.14H292Zm-2.82,3a4.47,4.47,0,0,0-2.49-.69,5.54,5.54,0,0,0-.66,0l0.06,13.9,2.2,2.6h-7.07l-0.32-.37h6.62l-1.85-2.12V29.24h0.75a5.91,5.91,0,0,1,1.9.21,1.59,1.59,0,0,1,.86.84v0Zm3.69-2.16a15.87,15.87,0,0,0-2,4l-0.06.14-0.3-.26V31.87a13.54,13.54,0,0,1,2-4l0.07-.08Z" transform="translate(4.79 1.75)"/><path class="cls-3" d="M294.41,27.27H301l-1.85,1.85v14.4L300.85,45h-6.44l1.92-1.59V29Zm7.18,0.79-1.41,1.4V43.55l2.32,2.6h-7.19L295,45.78h6.72l-1.92-2.1V29.33l1.56-1.55Z" transform="translate(4.79 1.75)"/><path class="cls-3" d="M304.9,27.27h5.45q4,0,5.92,1.53,2.86,2.27,2.86,7.11,0,5-2.5,7.26a6.58,6.58,0,0,1-2.54,1.42,13.56,13.56,0,0,1-3.73.42h-5.88l1.89-1.45V28.86Zm0.44,18.85-0.21-.37h5.06a12.31,12.31,0,0,0,5.67-1Q320,42.54,320,36.19q0-4.25-1.87-6.31l-0.55-.61-0.17-.19q2.93,1.84,2.93,7,0,5.46-2.9,8-2.23,2-7.27,2h-4.85v0Zm3.75-17.71V43.93h0.76V29.33a8.71,8.71,0,0,1,1.31-.11,5.62,5.62,0,0,1,1.79.23,3.86,3.86,0,0,1,1.32.84,7.27,7.27,0,0,0-3.14-.69q-0.36,0-.94.06V43.94a8.19,8.19,0,0,0,2.35-.26,3.74,3.74,0,0,0,1.52-1q2-2,2-6.83t-2.17-6.4a6.72,6.72,0,0,0-4.16-1h-0.65v0Z" transform="translate(4.79 1.75)"/><circle class="cls-3" cx="148.85" cy="20.25" r="4.75"/><circle class="cls-3" cx="106.7" cy="21.38" r="4.75"/><circle class="cls-3" cx="124.89" cy="15.52" r="2.11"/><circle class="cls-3" cx="132.38" cy="23.78" r="2.11"/><circle class="cls-3" cx="160.65" cy="13.42" r="2.11"/><circle class="cls-3" cx="97.7" cy="11.31" r="2.11"/><path class="cls-2" d="M0,57.49c70.66,0,127.95,2.78,127.95,6.21S70.67,69.91,0,69.91" transform="translate(4.79 1.75)"/><ellipse class="cls-2" cx="151.25" cy="70.51" rx="91.49" ry="6.21"/><path class="cls-2" d="M0,64.84c65.13,0,117.92,2.78,117.92,6.21S65.12,77.26,0,77.26" transform="translate(4.79 1.75)"/><polygon class="cls-4" points="190 69.28 175.22 69.28 174.56 15.45 187.84 18.89 190 69.28"/><polygon class="cls-5" points="187.84 18.89 185.43 20.64 177.53 19.85 174.56 15.45 178.87 12.72 190 15.78 187.84 18.89"/><polygon class="cls-5" points="185.43 20.64 175.22 69.28 186.56 69.28 190 15.78 185.43 20.64"/><line class="cls-6" x1="177.53" y1="19.85" x2="175.15" y2="63.91"/><line class="cls-7" x1="190" y1="16.97" x2="185.23" y2="69.28"/><line class="cls-7" x1="186.56" y1="19.38" x2="175.22" y2="69.28"/><rect class="cls-5" x="144.85" y="45.67" width="9.88" height="22.68"/><polygon class="cls-4" points="135.37 51.59 144.85 45.67 144.85 68.36 136.41 68.36 135.37 51.59"/><rect class="cls-5" x="120.56" y="33.55" width="9.88" height="41.01"/><polygon class="cls-4" points="111.08 44.25 120.56 33.55 120.56 74.56 112.11 74.56 111.08 44.25"/><rect class="cls-5" x="100.44" y="48.95" width="5.04" height="22.68"/><polygon class="cls-4" points="95.61 54.86 100.44 48.95 100.44 71.63 96.14 71.63 95.61 54.86"/><rect class="cls-5" x="407.2" y="9.62" width="3.62" height="61.63" rx="1.54" ry="1.54"/><path class="cls-5" d="M534.7,64.25c0.33,2.23-14.9,4.79-44.43,1.49C474.39,64,447,50.64,435.56,50.64c-29.09,0-57.43,19.41-71.69,24.75-7.78,2.92-124.88,2-171.82,1.15-2.18,0,189.54-37.6,234.37-35.17,33.9,1.84,46.66,15,60.23,18.4C518.94,67.87,534.7,64.25,534.7,64.25Z" transform="translate(4.79 1.75)"/><path class="cls-4" d="M463.43,51.95c-8.73-3.67-29-10.32-37-9.58C358.62,48.65,228.64,70.54,239,77.43l124.88-1C375.71,67,407.38,46,435.57,46" transform="translate(4.79 1.75)"/><path class="cls-4" d="M404.22,7.86l1.17,0.29a2.18,2.18,0,0,1,1.81,2V56.56c0,0.7,2,13.39-3,13H406" transform="translate(4.79 1.75)"/><line class="cls-6" x1="407.2" y1="15.76" x2="368.67" y2="53.01"/><line class="cls-6" x1="407.2" y1="20.66" x2="378.04" y2="49.41"/><line class="cls-6" x1="406.61" y1="26.63" x2="385.21" y2="47.72"/><line class="cls-6" x1="406.61" y1="30.24" x2="392.08" y2="45.63"/><line class="cls-6" x1="406.61" y1="37.18" x2="398.76" y2="44.88"/><line class="cls-6" x1="411.16" y1="15.76" x2="443.62" y2="44.4"/><line class="cls-6" x1="410.82" y1="20.31" x2="430.24" y2="38.63"/><polyline class="cls-6" points="410.82 26.63 431.24 43.12 424.6 53.7"/><line class="cls-6" x1="430.24" y1="20.31" x2="402.69" y2="59.93"/><line class="cls-6" x1="430.24" y1="27.71" x2="409.01" y2="57.62"/><line class="cls-6" x1="429.93" y1="37.18" x2="417.95" y2="55.05"/><line class="cls-6" x1="433.86" y1="20.66" x2="458.14" y2="56.59"/><line class="cls-6" x1="433.86" y1="27.71" x2="453.33" y2="55.05"/><line class="cls-6" x1="433.86" y1="36.22" x2="448.54" y2="53.7"/><line class="cls-6" x1="433.86" y1="43.58" x2="440.36" y2="52.4"/><rect class="cls-5" x="430.24" y="16.91" width="3.62" height="61.63" rx="1.54" ry="1.54"/><ellipse class="cls-8" cx="454.04" cy="26.2" rx="118.13" ry="6.56"/><ellipse class="cls-8" cx="188.37" cy="55.2" rx="175.29" ry="3.28"/></svg>