<svg id="Layer_2" data-name="Layer 2" xmlns="http://www.w3.org/2000/svg" viewBox="0 0 567.38 77.44"><defs><style>.cls-1{fill:#d99fc8;}.cls-2{fill:#b460a2;}.cls-3{fill:#fff;}.cls-4{fill:#c598c5;}.cls-5{fill:#9b579b;}.cls-6,.cls-7{fill:none;stroke:#662483;stroke-miterlimit:10;}.cls-6{stroke-width:0.5px;}.cls-7{stroke-width:0.75px;}.cls-8{fill:#f8f7f7;opacity:0.24;}</style></defs><title>nutidheader</title><rect class="cls-1" x="0.97" width="566.41" height="76.03"/><path class="cls-2" d="M697.7,244.08c-51.41,0-93.09-4.3-93.09-9.6s41.68-9.6,93.09-9.6" transform="translate(-131.24 -168.88)"/><ellipse class="cls-2" cx="459.91" cy="57.77" rx="66.56" ry="9.6"/><path class="cls-2" d="M697.7,232.7c-47.38,0-85.79-4.3-85.79-9.6s38.41-9.6,85.79-9.6" transform="translate(-131.24 -168.88)"/><circle class="cls-3" cx="545.86" cy="25.36" r="4.75"/><circle class="cls-3" cx="502.52" cy="25.3" r="3.56"/><circle class="cls-3" cx="521.91" cy="20.64" r="2.11"/><circle class="cls-3" cx="529.39" cy="28.9" r="2.11"/><circle class="cls-3" cx="557.67" cy="18.53" r="2.11"/><circle class="cls-3" cx="493.65" cy="15.35" r="1.48"/><ellipse class="cls-2" cx="427.86" cy="64.49" rx="115.44" ry="6.52"/><path class="cls-3" d="M386.58,196.15a5.62,5.62,0,0,0-2,1.49,5.82,5.82,0,0,0-.69,3.17v13.08h-2.34L375,201.22v8.13l0.17,2a3.07,3.07,0,0,0,1.26,2l0.11,0.1q-1.91-.64-1.91-4.08v-8.86l-0.75-1.45v8a15.48,15.48,0,0,0,.5,5,3.33,3.33,0,0,0,2.34,1.71l1.2,1.29h-7.5l-0.22-.37h6.93l-0.72-.76H370a3.9,3.9,0,0,0,2.24-1.63,8,8,0,0,0,.55-3.51V197.68l-1.84-1.53h7l-2,1.31,6.69,13.05v-1.66l-5.74-11.17,1.94-1.31,0.26,0.26-1.71,1.16,5.25,10.32v-7.19a8.54,8.54,0,0,0-.39-3.21,4,4,0,0,0-1.94-1.56h6.28Zm0.48,1-0.25.42a2.1,2.1,0,0,0-1.44.92,4.88,4.88,0,0,0-.38,2.26V215h-3l-0.18-.37h2.78V200.9a5.25,5.25,0,0,1,.5-2.72A2.76,2.76,0,0,1,387.07,197.17Z" transform="translate(-131.24 -168.88)"/><path class="cls-3" d="M405.11,196.15l-2.48,2v8.93a27.39,27.39,0,0,1-.16,3.54,4.21,4.21,0,0,1-.63,1.77q-1.19,1.77-4.62,1.77-3.62,0-5.06-1.77Q391,211,391,207v-9.18l-1.88-1.69h6.53L393.78,198v9l0,2.13a4.07,4.07,0,0,0,.86,2.92,4,4,0,0,0,2.89.86,3.38,3.38,0,0,0,3.08-1.31q0.68-1.06.68-4.56l0.06-8.95-2.16-2h5.89Zm0.47,0.94-1.88,1.56v8.59q0,4.22-.66,5.5-1.36,2.6-5.3,2.6a7,7,0,0,1-5.12-1.7l0.11,0.06,0.48,0.28a8.57,8.57,0,0,0,4.37,1q3.82,0,5.06-2.41,0.66-1.3.66-5.23v-8.85l2.06-1.69Zm-9.33-.19-1.36,1.37v11.23l0.43,1.76a5.79,5.79,0,0,0,1.2,1.27l0,0.12a2.89,2.89,0,0,1-1.6-1.37,6.6,6.6,0,0,1-.44-2.78V198.12L396,196.6Z" transform="translate(-131.24 -168.88)"/><path class="cls-3" d="M423.27,196.15l-0.17.32-0.94,1.66a12.28,12.28,0,0,0-.9,2.21l0,0.07-0.14-.1,0-.18a4.08,4.08,0,0,0-1.14-2.19,3.52,3.52,0,0,0-2.26-.61q-0.62,0-1.24.06h-0.17v15l1.63,1.51h-6.32l1.94-1.62V198.51h-1a2.28,2.28,0,0,0-2.74,2.53h-0.36a3.47,3.47,0,0,1,.84-2.25,3.27,3.27,0,0,1,2.26-.64h1v-0.68a11.43,11.43,0,0,0-1.34-.08,3.74,3.74,0,0,0-2.57.73,3.46,3.46,0,0,0-.87,2.45h-0.17a25.66,25.66,0,0,0-1.84-4.29l-0.08-.14h16.65Zm-2.82,3a4.47,4.47,0,0,0-2.49-.69,5.54,5.54,0,0,0-.66,0l0.06,13.9,2.2,2.6h-7.07l-0.32-.37h6.62l-1.85-2.12V198.12h0.75a5.91,5.91,0,0,1,1.9.21A1.59,1.59,0,0,1,420.45,199.17Zm3.69-2.16a15.87,15.87,0,0,0-2,4l-0.06.14-0.3-.26,0-.12a13.54,13.54,0,0,1,2-4l0.07-.08Z" transform="translate(-131.24 -168.88)"/><path class="cls-3" d="M425.65,196.15h6.55L430.35,198v14.4l1.74,1.47h-6.44l1.92-1.59V197.87Zm7.18,0.79-1.41,1.4v14.09l2.32,2.6h-7.19l-0.35-.37h6.72L431,212.56V198.21l1.56-1.55Z" transform="translate(-131.24 -168.88)"/><path class="cls-3" d="M436.14,196.15h5.45q4,0,5.92,1.53,2.86,2.27,2.86,7.11,0,5-2.5,7.26a6.58,6.58,0,0,1-2.54,1.42,13.56,13.56,0,0,1-3.73.42h-5.88l1.89-1.45v-14.7ZM436.58,215l-0.21-.37h5.06a12.31,12.31,0,0,0,5.67-1q4.16-2.21,4.16-8.56,0-4.25-1.87-6.31l-0.55-.61-0.17-.19q2.93,1.84,2.93,7,0,5.46-2.9,8-2.23,2-7.27,2h-4.85Zm3.75-17.71v15.52h0.76v-14.6a8.71,8.71,0,0,1,1.31-.11,5.62,5.62,0,0,1,1.79.23,3.86,3.86,0,0,1,1.32.84,7.27,7.27,0,0,0-3.14-.69q-0.36,0-.94.06v14.28a8.19,8.19,0,0,0,2.35-.26,3.74,3.74,0,0,0,1.52-1q2-2,2-6.83t-2.17-6.4a6.72,6.72,0,0,0-4.16-1h-0.65Z" transform="translate(-131.24 -168.88)"/><circle class="cls-3" cx="107.17" cy="18.9" r="4.75"/><circle class="cls-3" cx="65.03" cy="20.04" r="4.75"/><circle class="cls-3" cx="83.21" cy="14.18" r="2.11"/><circle class="cls-3" cx="90.7" cy="22.44" r="2.11"/><circle class="cls-3" cx="118.98" cy="12.07" r="2.11"/><circle class="cls-3" cx="56.02" cy="9.97" r="2.11"/><path class="cls-2" d="M131.24,226.37c70.66,0,127.95,2.78,127.95,6.21s-57.28,6.21-127.95,6.21" transform="translate(-131.24 -168.88)"/><ellipse class="cls-2" cx="146.46" cy="68.76" rx="91.49" ry="6.21"/><path class="cls-2" d="M131.24,233.72c65.13,0,117.92,2.78,117.92,6.21s-52.8,6.21-117.92,6.21" transform="translate(-131.24 -168.88)"/><polygon class="cls-4" points="142.22 67.98 127.44 67.98 126.77 14.15 140.05 17.59 142.22 67.98"/><polygon class="cls-5" points="140.05 17.59 137.64 19.34 129.75 18.55 126.77 14.15 131.08 11.42 142.22 14.47 140.05 17.59"/><polygon class="cls-5" points="137.64 19.34 127.44 67.98 138.78 67.98 142.22 14.47 137.64 19.34"/><line class="cls-6" x1="129.75" y1="18.55" x2="127.37" y2="62.61"/><line class="cls-7" x1="142.22" y1="15.67" x2="137.45" y2="67.98"/><line class="cls-7" x1="138.77" y1="18.08" x2="127.44" y2="67.98"/><rect class="cls-5" x="103.17" y="44.33" width="9.88" height="22.68"/><polygon class="cls-4" points="93.69 50.25 103.17 44.33 103.17 67.02 94.72 67.02 93.69 50.25"/><rect class="cls-5" x="78.88" y="32.21" width="9.88" height="41.01"/><polygon class="cls-4" points="69.4 42.91 78.89 32.21 78.89 73.22 70.44 73.22 69.4 42.91"/><rect class="cls-5" x="58.76" y="47.6" width="5.04" height="22.68"/><polygon class="cls-4" points="53.93 53.52 58.76 47.6 58.76 70.29 54.45 70.29 53.93 53.52"/><rect class="cls-5" x="402.41" y="7.87" width="3.62" height="61.63" rx="1.54" ry="1.54"/><path class="cls-5" d="M665.94,233.13c0.33,2.23-14.9,4.79-44.43,1.49-15.88-1.77-43.3-15.1-54.71-15.1-29.09,0-57.43,19.41-71.69,24.75-7.78,2.92-124.88,2-171.82,1.15-2.18,0,189.54-37.6,234.37-35.17,33.9,1.84,46.66,15,60.23,18.4C650.18,236.75,665.94,233.13,665.94,233.13Z" transform="translate(-131.24 -168.88)"/><path class="cls-4" d="M594.67,220.83c-8.73-3.67-29-10.32-37-9.58-67.81,6.28-197.79,28.17-187.43,35.06l124.88-1c11.83-9.43,43.5-30.42,71.69-30.42" transform="translate(-131.24 -168.88)"/><path class="cls-4" d="M535.46,176.74l1.17,0.29a2.18,2.18,0,0,1,1.81,2v46.41c0,0.7,1.95,13.39-3,13h1.81" transform="translate(-131.24 -168.88)"/><line class="cls-6" x1="402.41" y1="14.01" x2="363.88" y2="51.26"/><line class="cls-6" x1="402.41" y1="18.91" x2="373.25" y2="47.66"/><line class="cls-6" x1="401.82" y1="24.88" x2="380.42" y2="45.97"/><line class="cls-6" x1="401.82" y1="28.49" x2="387.29" y2="43.88"/><line class="cls-6" x1="401.82" y1="35.43" x2="393.97" y2="43.13"/><line class="cls-6" x1="406.37" y1="14.01" x2="438.83" y2="42.65"/><line class="cls-6" x1="406.03" y1="18.56" x2="425.45" y2="36.88"/><polyline class="cls-6" points="406.03 24.88 426.44 41.37 419.8 51.95"/><line class="cls-6" x1="425.45" y1="18.56" x2="397.9" y2="58.18"/><line class="cls-6" x1="425.45" y1="25.96" x2="404.22" y2="55.87"/><line class="cls-6" x1="425.14" y1="35.43" x2="413.16" y2="53.3"/><line class="cls-6" x1="429.07" y1="18.91" x2="453.35" y2="54.84"/><line class="cls-6" x1="429.07" y1="25.96" x2="448.54" y2="53.3"/><line class="cls-6" x1="429.07" y1="34.47" x2="443.75" y2="51.95"/><line class="cls-6" x1="429.07" y1="41.83" x2="435.57" y2="50.65"/><rect class="cls-5" x="425.45" y="15.16" width="3.62" height="61.63" rx="1.54" ry="1.54"/><ellipse class="cls-8" cx="449.25" cy="24.45" rx="118.13" ry="6.56"/><ellipse class="cls-8" cx="183.58" cy="53.45" rx="175.29" ry="3.28"/></svg>