<svg id="Layer_1" data-name="Layer 1" xmlns="http://www.w3.org/2000/svg" viewBox="0 0 47.88 42.09">
    <defs>
        <style>
            .cls-1,
            .cls-2,
            .cls-3 {
                fill: none;
                stroke: #b2ebf2;
                stroke-width: 4px;
            }
            .cls-2,
            .cls-3 {
                stroke-linecap: round;
            }
            .cls-2 {
                stroke-linejoin: bevel;
            }
        </style>
    </defs>
    <title>tumsd</title>
    <g id="Page-1">
        <g id="Icon"><path id="Stroke-70" class="cls-1" d="M49.89,32.35a1.69,1.69,0,0,1-1.26,1.57L37.71,34c-0.63,0-.81-0.93-0.81-1.56L36.81,11.1c0-.63.17-1.14,0.8-1.14l10.92,0A1.26,1.26,0,0,1,49.81,11l0.09,21.3h0Z" transform="translate(-4.01 -7.92)"/><path id="Stroke-72" class="cls-2" d="M20.91,36l-12.37,0C7.07,36.08,5.76,32.34,6,31c0,0,3.48-14.32,4.33-16.55s3.73-2.36,4.35-2.36h2.08" transform="translate(-4.01 -7.92)"/><path id="Stroke-74" class="cls-3" d="M35.86,30.85l-2.26.91-4.8,8.59s0.21,4.54-.27,5.91S23.64,50.12,21,44.55s0-8.7,0-8.7" transform="translate(-4.01 -7.92)"/><path id="Stroke-76" class="cls-2" d="M27.95,11.62c2.28,0.82,8.15,3,8.15,3" transform="translate(-4.01 -7.92)"/><path id="Stroke-78" class="cls-3" d="M27.81,12l-13,.05" transform="translate(-4.01 -7.92)"/></g>
    </g>
</svg>
