<svg id="Layer_1" data-name="Layer 1" xmlns="http://www.w3.org/2000/svg" viewBox="0 0 47.88 42">
    <defs>
        <style>
            .cls-1,
            .cls-2,
            .cls-3 {
                fill: none;
                stroke: #b2ebf2;
                stroke-width: 4px;
            }
            .cls-2,
            .cls-3 {
                stroke-linecap: round;
            }
            .cls-2 {
                stroke-linejoin: bevel;
            }
        </style>
    </defs>
    <title>tums</title>
    <g id="Page-1">
        <g id="Icon"><path id="Stroke-70" class="cls-1" d="M6,25.56A1.69,1.69,0,0,1,7.27,24H18.19c0.64,0,.81.94,0.81,1.56v21.3c0,0.63-.18,1.14-0.81,1.14H7.27A1.26,1.26,0,0,1,6,46.86V25.56H6Z" transform="translate(-4 -8)"/><path id="Stroke-72" class="cls-2" d="M35,22H47.37c1.47,0,2.76,3.75,2.47,5.13,0,0-3.54,14.31-4.4,16.53S41.7,46,41.08,46H39" transform="translate(-4 -8)"/><path id="Stroke-74" class="cls-3" d="M20,27.12l2.27-.9,4.83-8.57s-0.19-4.54.29-5.91,4.91-3.85,7.52,1.73,0,8.7,0,8.7" transform="translate(-4 -8)"/><path id="Stroke-76" class="cls-2" d="M27.86,46.38c-2.28-.83-8.13-3-8.13-3" transform="translate(-4 -8)"/><path id="Stroke-78" class="cls-3" d="M28,46H41" transform="translate(-4 -8)"/></g>
    </g>
</svg>
